<svg width="57" height="67" viewBox="0 0 57 67" fill="none" xmlns="http://www.w3.org/2000/svg">
<g filter="url(#filter0_d_1410_10572)">
<path d="M28.5187 4.40698C22.0564 4.407 20.9816 10.3519 20.9816 11.2355C20.9816 12.1191 21.3733 15.8994 22.2965 16.3539C23.2196 16.8083 21.9615 19.3484 21.4076 19.8937C20.0228 21.257 13.5962 22.142 12.2114 23.0508C10.8266 23.9597 9.44186 26.6863 8.98027 28.0497C8.51868 29.413 8.05708 31.6851 9.44186 33.0485L9.4419 33.0485C10.8267 34.4118 12.2114 35.7751 14.9809 35.7751C17.7505 35.7751 19.1353 41.2283 18.2121 42.5916C17.2889 43.9549 18.6737 43.9549 17.2889 45.7727C15.9041 47.5904 18.6737 51.2259 21.4432 52.5892C21.4432 52.5892 26.9823 54.407 28.3671 54.407C29.7519 54.407 34.8293 53.0437 36.6757 52.1348C38.5221 51.2259 40.83 47.5904 39.9068 46.2271C38.9837 44.8638 37.5989 43.0461 38.0605 41.6828C38.5221 40.3194 38.9837 37.1384 42.6764 35.7751C46.3691 34.4118 47.7539 33.5029 48.2155 32.594C48.6771 31.6851 48.6771 28.5041 47.7539 26.6863C46.8307 24.8686 44.5227 22.1419 42.2148 21.6875C39.9069 21.2331 39.2711 21.245 36.9631 20.3362C34.6552 19.4273 34.2965 16.3539 35.1853 15.9114C36.0742 15.4689 36.0742 11.9911 36.0742 11.0442C36.0742 9.22643 34.9809 4.40696 28.5187 4.40698Z" fill="#421212"/>
<path fill-rule="evenodd" clip-rule="evenodd" d="M22.7227 7.86243C21.7053 9.37148 21.463 10.9801 21.463 11.3285C21.463 11.7323 21.5565 12.8661 21.7652 13.9545C21.8694 14.4977 21.9982 15.0076 22.1494 15.3999C22.2251 15.5962 22.3007 15.748 22.3722 15.8554C22.4075 15.9083 22.438 15.9446 22.4621 15.9683C22.4862 15.9921 22.4986 15.9983 22.4986 15.9983C22.9788 16.2347 22.9504 16.8267 22.9545 17.2159C22.9585 17.6114 23.001 17.9464 22.8587 18.3492C22.7137 18.7599 22.5207 19.1691 22.3269 19.513C22.139 19.8463 21.9291 20.1566 21.7397 20.343C21.3057 20.7703 20.5453 21.1109 19.7289 21.3989C18.888 21.6955 17.8934 21.9669 16.9161 22.2198C16.6216 22.296 16.3294 22.3703 16.0427 22.4433C15.3685 22.6148 14.7249 22.7785 14.1554 22.9399C13.3225 23.176 12.7381 23.384 12.4671 23.5619C11.8747 23.9507 11.2302 24.7752 10.6602 25.7293C10.0993 26.6681 9.65341 27.6585 9.43519 28.303C9.21291 28.9595 9 29.81 9 30.6421C9 31.4719 9.21011 32.2301 9.77396 32.7852C11.1524 34.1422 12.4095 35.3681 14.9623 35.3681C15.8329 35.3681 16.5614 35.7996 17.1282 36.3975C17.6926 36.9928 18.1268 37.7815 18.4306 38.5891C18.7353 39.3991 18.92 40.2574 18.9665 41.0137C19.0112 41.74 18.9357 42.4802 18.6074 42.965C18.4106 43.2557 18.3635 43.433 18.352 43.5501C18.3413 43.659 18.3542 43.7401 18.377 43.8846C18.3838 43.9276 18.3915 43.9763 18.3997 44.033C18.4341 44.2695 18.4557 44.5606 18.3495 44.9312C18.2471 45.2885 18.0362 45.6854 17.668 46.1687C17.4289 46.4826 17.3467 46.8975 17.4382 47.4197C17.5307 47.9479 17.7972 48.5507 18.2063 49.1683C19.0194 50.3957 20.3238 51.5745 21.6142 52.2182L21.6418 52.2272C21.6823 52.2404 21.7421 52.2598 21.8187 52.2845C21.9719 52.3339 22.1926 52.4046 22.4619 52.4894C23.0007 52.6591 23.7327 52.8852 24.5072 53.1111C25.2826 53.3373 26.0959 53.562 26.7984 53.7296C27.5198 53.9018 28.07 54 28.3484 54C28.6393 54 29.1725 53.9247 29.8717 53.7828C30.5583 53.6434 31.3698 53.4473 32.1986 53.2222C33.8683 52.7687 35.5593 52.2109 36.4362 51.7792C37.2352 51.3859 38.2111 50.3436 38.8787 49.1934C39.2079 48.6263 39.4421 48.0662 39.5432 47.5873C39.6473 47.0938 39.593 46.7759 39.4742 46.6005C39.3962 46.4853 39.3134 46.3648 39.2276 46.24C38.8215 45.6491 38.3487 44.9611 37.9999 44.2744C37.5851 43.4576 37.2685 42.5006 37.5682 41.6154C37.6197 41.4634 37.6724 41.28 37.7321 41.0724C38.1729 39.5397 38.993 36.6881 42.4845 35.399C44.3215 34.7208 45.5579 34.165 46.3846 33.6766C47.2143 33.1866 47.5824 32.7926 47.751 32.4606C47.8247 32.3155 47.9036 32.0192 47.9523 31.5809C47.9994 31.1571 48.0136 30.6447 47.9859 30.0994C47.93 28.9972 47.7062 27.8264 47.2894 27.0058C46.8534 26.1473 46.0785 25.0547 45.1342 24.125C44.1821 23.1876 43.1134 22.4707 42.0995 22.2711C41.6303 22.1788 41.2283 22.1055 40.8651 22.0393C39.4604 21.7832 38.6374 21.6332 36.7612 20.8944C35.4275 20.3692 34.6742 19.2259 34.3759 18.1789C34.2266 17.655 34.1922 17.4455 34.2602 16.9973C34.3241 16.5758 34.2122 16.0844 34.6541 15.8645C34.6541 15.8645 35.056 15.5497 35.1109 15.4597C35.1669 15.368 35.2822 14.9957 35.3376 14.8169C35.4485 14.4592 35.3931 14.2159 35.4473 13.707C35.5552 12.6935 35.5556 11.6119 35.5556 11.1372C35.5556 10.3047 35.3005 8.76079 34.3021 7.43819C33.3237 6.14219 31.5885 4.99999 28.5 5C25.4543 5.00001 23.7175 6.38689 22.7227 7.86243ZM21.4245 52.6823L21.2686 53.1573L21.2352 53.1464L21.2037 53.1308C19.7347 52.4077 18.284 51.0962 17.3727 49.7205C16.9163 49.0316 16.577 48.2995 16.4532 47.5922C16.3282 46.8788 16.4192 46.1577 16.8725 45.5627C17.1967 45.1372 17.3319 44.8523 17.3882 44.6558C17.4407 44.4725 17.4335 44.3376 17.4101 44.1766C17.4065 44.1519 17.4019 44.1238 17.3968 44.0929C17.3707 43.9352 17.3322 43.7023 17.3568 43.4523C17.3886 43.1292 17.5147 42.7952 17.7794 42.4043C17.9127 42.2074 18.0103 41.7547 17.9684 41.0751C17.9284 40.4255 17.7669 39.6649 17.4946 38.9412C17.2214 38.215 16.8478 37.5552 16.4025 37.0855C15.9596 36.6182 15.4764 36.3681 14.9623 36.3681C11.9878 36.3681 10.4756 34.8793 9.08902 33.5141L9.0724 33.4978C8.25148 32.6896 8 31.63 8 30.6421C8 29.6564 8.24869 28.6891 8.48801 27.9823C8.73137 27.2635 9.20868 26.209 9.80175 25.2164C10.3857 24.2391 11.126 23.2459 11.9184 22.7259C12.3397 22.4493 13.0779 22.2059 13.8828 21.9778C14.4658 21.8126 15.1308 21.6434 15.8113 21.4702C16.0949 21.3981 16.3813 21.3252 16.6656 21.2517C17.6411 20.9993 18.5993 20.737 19.3962 20.4559C20.2175 20.1661 20.7797 19.8848 21.0381 19.6304C21.1257 19.5442 21.2807 19.3325 21.4557 19.022C21.6248 18.722 21.7924 18.3656 21.9158 18.0162C22.0419 17.6591 22.0761 17.6063 22.0738 17.3807C22.0726 17.2702 22.0875 16.947 22.0738 16.9174C22.0652 16.8989 22.0609 16.8972 22.058 16.8959L22.057 16.8955C21.8302 16.7839 21.6632 16.5947 21.5402 16.4101C21.4137 16.2203 21.3072 15.9953 21.2163 15.7595C21.0344 15.2876 20.8923 14.7119 20.7831 14.1428C20.5652 13.0065 20.463 11.8083 20.463 11.3285C20.463 10.7934 20.758 8.9877 21.8935 7.30341C23.0517 5.5856 25.0834 4.00001 28.5 4C31.8738 3.99999 33.9163 5.26751 35.1002 6.83568C36.2639 8.37723 36.5556 10.152 36.5556 11.1372V11.1414C36.5556 11.6162 36.5556 12.7434 36.4416 13.8129C36.3847 14.3472 36.2972 14.89 36.1581 15.3385C36.0886 15.5628 36.0009 15.7808 35.8868 15.9677C35.7745 16.1515 35.6157 16.3394 35.3895 16.452C35.387 16.4533 35.2859 16.5221 35.2392 16.8297C35.1966 17.1106 35.2198 17.4915 35.3376 17.9049C35.5734 18.7325 36.1535 19.5803 37.1276 19.964C38.9091 20.6655 39.6441 20.7996 41.0244 21.0515C41.3911 21.1184 41.8033 21.1936 42.2927 21.29C43.5868 21.5448 44.8261 22.4184 45.8357 23.4124C46.8532 24.4141 47.6938 25.5936 48.181 26.5529C48.6874 27.5501 48.9252 28.8787 48.9846 30.0487C49.0147 30.6395 49.0001 31.2064 48.9462 31.6914C48.8939 32.162 48.7997 32.6041 48.6426 32.9134C48.3496 33.4904 47.7946 34.0052 46.8932 34.5377C45.989 35.0718 44.6866 35.652 42.8309 36.3372C39.8452 37.4394 39.1584 39.7763 38.7052 41.3184C38.6391 41.5433 38.578 41.7513 38.5154 41.9361C38.3535 42.4142 38.4985 43.0477 38.8915 43.8215C39.2072 44.4432 39.6331 45.0634 40.0383 45.6537C40.1277 45.784 40.2162 45.9128 40.3022 46.0398C40.645 46.546 40.6483 47.1938 40.5216 47.7938C40.3919 48.4084 40.1068 49.0696 39.7436 49.6954C39.0265 50.931 37.9253 52.1608 36.8779 52.6764C35.9084 53.1536 34.1375 53.7319 32.4607 54.1873C31.6162 54.4166 30.7832 54.6181 30.0706 54.7628C29.3707 54.9049 28.7498 55 28.3484 55C27.9344 55 27.273 54.871 26.5663 54.7023C25.8407 54.5292 25.0096 54.2994 24.2272 54.0711C23.4438 53.8426 22.7045 53.6143 22.1614 53.4432C21.8898 53.3576 21.6669 53.2862 21.5118 53.2362C21.4343 53.2112 21.3737 53.1916 21.3323 53.1781L21.2851 53.1627L21.2698 53.1577L21.2686 53.1573C21.2686 53.1573 21.2686 53.1573 21.4245 52.6823Z" fill="url(#paint0_linear_1410_10572)"/>
<path d="M22.4408 21.8848L16.5187 23.0761C16.5187 23.0761 18.3888 28.139 18.3888 29.3303C18.3888 30.5216 16.8304 33.7976 16.8304 33.7976L20.2589 39.1584C20.2589 39.1584 19.6356 41.8388 19.9472 42.1366C20.2589 42.4345 21.5057 44.2214 22.1291 44.5192C22.7524 44.817 27.7395 46.604 28.6745 46.604C29.6096 46.604 34.5966 44.5192 34.9083 44.2214C35.22 43.9236 37.0901 42.1366 37.0901 41.541C37.0901 40.9454 36.7784 39.1584 36.7784 39.1584L40.5187 33.4998C40.5187 33.4998 38.6485 29.3303 38.6485 28.4368C38.6485 27.5434 40.5187 23.0761 40.5187 23.0761L34.5966 21.8848L32.4148 25.7564H24.3109L22.4408 21.8848Z" fill="#C4C4C4"/>
<path d="M22.4408 21.8848L16.5187 23.0761C16.5187 23.0761 18.3888 28.139 18.3888 29.3303C18.3888 30.5216 16.8304 33.7976 16.8304 33.7976L20.2589 39.1584C20.2589 39.1584 19.6356 41.8388 19.9472 42.1366C20.2589 42.4345 21.5057 44.2214 22.1291 44.5192C22.7524 44.817 27.7395 46.604 28.6745 46.604C29.6096 46.604 34.5966 44.5192 34.9083 44.2214C35.22 43.9236 37.0901 42.1366 37.0901 41.541C37.0901 40.9454 36.7784 39.1584 36.7784 39.1584L40.5187 33.4998C40.5187 33.4998 38.6485 29.3303 38.6485 28.4368C38.6485 27.5434 40.5187 23.0761 40.5187 23.0761L34.5966 21.8848L32.4148 25.7564H24.3109L22.4408 21.8848Z" fill="url(#paint1_linear_1410_10572)"/>
<path d="M35.22 46.604C36.155 46.3061 36.6611 44.8937 37.0901 44.7614C37.5191 44.6292 38.6716 46.3275 38.6382 46.7757C38.6048 47.2239 36.4667 50.1778 35.8434 50.4756C35.22 50.7735 29.6096 52.8582 28.6745 52.8582C27.7395 52.8582 22.1291 50.7735 21.5057 50.4756C20.8823 50.1778 18.2532 47.744 18.2951 47.0539C18.337 46.3639 19.1066 44.6673 19.4299 44.7614C19.7532 44.8555 19.9472 45.4127 21.194 46.3061C22.4408 47.1996 27.7395 48.6887 28.6745 48.6887C29.6096 48.6887 34.2849 46.9018 35.22 46.604Z" fill="#C4C4C4"/>
<path d="M35.22 46.604C36.155 46.3061 36.6611 44.8937 37.0901 44.7614C37.5191 44.6292 38.6716 46.3275 38.6382 46.7757C38.6048 47.2239 36.4667 50.1778 35.8434 50.4756C35.22 50.7735 29.6096 52.8582 28.6745 52.8582C27.7395 52.8582 22.1291 50.7735 21.5057 50.4756C20.8823 50.1778 18.2532 47.744 18.2951 47.0539C18.337 46.3639 19.1066 44.6673 19.4299 44.7614C19.7532 44.8555 19.9472 45.4127 21.194 46.3061C22.4408 47.1996 27.7395 48.6887 28.6745 48.6887C29.6096 48.6887 34.2849 46.9018 35.22 46.604Z" fill="url(#paint2_linear_1410_10572)"/>
<path d="M46.7027 31.3688L42.2365 34.2741C42.2365 34.2741 40.5187 32.4583 40.5187 29.9162C40.5187 27.3741 41.2058 24.1056 41.8929 23.7425C42.58 23.3793 44.2978 24.1056 45.6721 26.6196C47.0463 29.1335 46.7027 31.3688 46.7027 31.3688Z" fill="#C4C4C4"/>
<path d="M46.7027 31.3688L42.2365 34.2741C42.2365 34.2741 40.5187 32.4583 40.5187 29.9162C40.5187 27.3741 41.2058 24.1056 41.8929 23.7425C42.58 23.3793 44.2978 24.1056 45.6721 26.6196C47.0463 29.1335 46.7027 31.3688 46.7027 31.3688Z" fill="url(#paint3_linear_1410_10572)"/>
<path d="M10.3346 31.3688L14.8009 34.2741C14.8009 34.2741 16.5187 32.4583 16.5187 29.9162C16.5187 27.3741 15.8316 24.1056 15.1444 23.7425C14.4573 23.3793 12.7395 24.1056 11.3653 26.6196C9.99107 29.1335 10.3346 31.3688 10.3346 31.3688Z" fill="#C4C4C4"/>
<path d="M10.3346 31.3688L14.8009 34.2741C14.8009 34.2741 16.5187 32.4583 16.5187 29.9162C16.5187 27.3741 15.8316 24.1056 15.1444 23.7425C14.4573 23.3793 12.7395 24.1056 11.3653 26.6196C9.99107 29.1335 10.3346 31.3688 10.3346 31.3688Z" fill="url(#paint4_linear_1410_10572)"/>
<path d="M26.39 15.3952L26.6941 22.7698C26.6941 22.7698 23.6532 21.5898 23.6532 20.4099V16.5751C23.6532 15.3952 22.7409 15.6901 22.7409 15.1002V10.0854C22.7409 9.49545 24.5655 5.95563 28.5187 5.95563C32.4719 5.95563 34.2965 9.20047 34.2965 9.79044V15.1002C34.2965 15.6901 33.3842 15.1002 33.3842 16.5751V20.1149C33.3842 21.8848 30.0392 22.7698 30.0392 22.7698L30.6473 15.6901L33.0801 13.9202V11.5603L29.1269 13.6252L29.431 16.2801L28.5187 17.1651L27.6064 16.2801L27.9105 13.6252L23.9573 11.5603V14.2152L26.39 15.3952Z" fill="#C4C4C4"/>
<path d="M26.39 15.3952L26.6941 22.7698C26.6941 22.7698 23.6532 21.5898 23.6532 20.4099V16.5751C23.6532 15.3952 22.7409 15.6901 22.7409 15.1002V10.0854C22.7409 9.49545 24.5655 5.95563 28.5187 5.95563C32.4719 5.95563 34.2965 9.20047 34.2965 9.79044V15.1002C34.2965 15.6901 33.3842 15.1002 33.3842 16.5751V20.1149C33.3842 21.8848 30.0392 22.7698 30.0392 22.7698L30.6473 15.6901L33.0801 13.9202V11.5603L29.1269 13.6252L29.431 16.2801L28.5187 17.1651L27.6064 16.2801L27.9105 13.6252L23.9573 11.5603V14.2152L26.39 15.3952Z" fill="url(#paint5_linear_1410_10572)"/>
</g>
<defs>
<filter id="filter0_d_1410_10572" x="0" y="0" width="57" height="67" filterUnits="userSpaceOnUse" color-interpolation-filters="sRGB">
<feFlood flood-opacity="0" result="BackgroundImageFix"/>
<feColorMatrix in="SourceAlpha" type="matrix" values="0 0 0 0 0 0 0 0 0 0 0 0 0 0 0 0 0 0 127 0" result="hardAlpha"/>
<feOffset dy="4"/>
<feGaussianBlur stdDeviation="4"/>
<feComposite in2="hardAlpha" operator="out"/>
<feColorMatrix type="matrix" values="0 0 0 0 0 0 0 0 0 0 0 0 0 0 0 0 0 0 0.5 0"/>
<feBlend mode="normal" in2="BackgroundImageFix" result="effect1_dropShadow_1410_10572"/>
<feBlend mode="normal" in="SourceGraphic" in2="effect1_dropShadow_1410_10572" result="shape"/>
</filter>
<linearGradient id="paint0_linear_1410_10572" x1="-39.0847" y1="29.1796" x2="56.1219" y2="29.1796" gradientUnits="userSpaceOnUse">
<stop stop-color="#B98E37"/>
<stop offset="0.358578" stop-color="#FCF6BA"/>
<stop offset="0.601741" stop-color="#D0AA57"/>
<stop offset="0.78125" stop-color="#FBF5B7"/>
<stop offset="1" stop-color="#AA771C"/>
</linearGradient>
<linearGradient id="paint1_linear_1410_10572" x1="-12.0433" y1="37.3677" x2="45.0807" y2="37.3677" gradientUnits="userSpaceOnUse">
<stop stop-color="#B98E37"/>
<stop offset="0.358578" stop-color="#FCF6BA"/>
<stop offset="0.601741" stop-color="#D0AA57"/>
<stop offset="0.78125" stop-color="#FBF5B7"/>
<stop offset="1" stop-color="#AA771C"/>
</linearGradient>
<linearGradient id="paint2_linear_1410_10572" x1="-12.0433" y1="37.3677" x2="45.0807" y2="37.3677" gradientUnits="userSpaceOnUse">
<stop stop-color="#B98E37"/>
<stop offset="0.358578" stop-color="#FCF6BA"/>
<stop offset="0.601741" stop-color="#D0AA57"/>
<stop offset="0.78125" stop-color="#FBF5B7"/>
<stop offset="1" stop-color="#AA771C"/>
</linearGradient>
<linearGradient id="paint3_linear_1410_10572" x1="-17.7613" y1="39.7169" x2="45.2036" y2="39.7169" gradientUnits="userSpaceOnUse">
<stop stop-color="#B98E37"/>
<stop offset="0.358578" stop-color="#FCF6BA"/>
<stop offset="0.601741" stop-color="#D0AA57"/>
<stop offset="0.78125" stop-color="#FBF5B7"/>
<stop offset="1" stop-color="#AA771C"/>
</linearGradient>
<linearGradient id="paint4_linear_1410_10572" x1="74.7986" y1="39.7169" x2="11.8338" y2="39.7169" gradientUnits="userSpaceOnUse">
<stop stop-color="#B98E37"/>
<stop offset="0.358578" stop-color="#FCF6BA"/>
<stop offset="0.601741" stop-color="#D0AA57"/>
<stop offset="0.78125" stop-color="#FBF5B7"/>
<stop offset="1" stop-color="#AA771C"/>
</linearGradient>
<linearGradient id="paint5_linear_1410_10572" x1="11.7106" y1="14.3607" x2="33.7712" y2="14.3607" gradientUnits="userSpaceOnUse">
<stop stop-color="#B98E37"/>
<stop offset="0.358578" stop-color="#FCF6BA"/>
<stop offset="0.601741" stop-color="#D0AA57"/>
<stop offset="0.78125" stop-color="#FBF5B7"/>
<stop offset="1" stop-color="#AA771C"/>
</linearGradient>
</defs>
</svg>
