<svg width="43" height="43" viewBox="0 0 43 43" fill="none" xmlns="http://www.w3.org/2000/svg">
<g filter="url(#filter0_d_1410_9780)">
<path d="M36.7885 4.50157C39.6125 5.91984 32.5426 -1.15212 33.9601 1.67314C34.227 2.20528 33.4906 3.59031 32.1004 5.47866C29.5154 8.5008 25.4325 12.8041 21.229 17.0111C17.2 12.9624 13.3322 8.87422 10.848 5.96927C9.45762 4.08077 8.72112 2.69575 8.98823 2.1639C10.4065 -0.660162 3.33453 6.40981 6.1598 4.99233C6.69193 4.72535 8.07696 5.46176 9.96532 6.85199C12.8699 9.33648 16.9579 13.2045 21.0065 17.2335C16.7987 21.4371 12.4945 25.52 9.47124 28.1043C7.58891 29.489 6.20807 30.2224 5.67578 29.9574C2.84289 28.5471 9.92292 35.6104 8.50421 32.7858C8.23748 32.2548 8.97099 30.8735 10.3568 28.9899C12.9412 25.9665 17.0243 21.662 21.228 17.4542C25.6031 21.816 29.9058 26.34 32.591 29.4811C33.9757 31.3635 34.7091 32.7443 34.4441 33.2766C33.0337 36.1095 40.0971 29.0295 37.2725 30.4482C36.7415 30.7149 35.3602 29.9814 33.4766 28.5955C30.3354 25.9105 25.8114 21.6077 21.4496 17.2326C25.6568 13.029 29.9605 8.94613 32.9831 6.36139C34.8716 4.97096 36.2566 4.23447 36.7885 4.50157Z" fill="url(#paint0_linear_1410_9780)"/>
<path d="M31.7085 5.16755C29.2077 8.08982 25.297 12.22 21.2297 16.3024C17.3392 12.3815 13.6399 8.46337 11.2399 5.65818C10.5564 4.72877 10.0478 3.94211 9.74374 3.33416C9.59034 3.02749 9.49892 2.78574 9.45818 2.60649C9.42082 2.44211 9.43819 2.38386 9.43739 2.38361C9.53143 2.1959 9.60387 2.0233 9.64324 1.87097C9.66315 1.79394 9.67938 1.7043 9.67837 1.61004C9.67739 1.51771 9.65936 1.38588 9.5765 1.25914C9.3737 0.948964 9.03451 0.981464 8.90693 1.00882C8.75918 1.0405 8.61514 1.11234 8.49625 1.18138C8.01615 1.46015 7.31431 2.07575 6.69287 2.69706C6.07145 3.31835 5.4557 4.02008 5.1769 4.50015C5.10786 4.61904 5.03599 4.76312 5.00432 4.91092C4.97694 5.03874 4.94468 5.37778 5.25479 5.58046C5.38146 5.66326 5.51322 5.68131 5.60554 5.68232C5.69979 5.68335 5.78943 5.66716 5.86649 5.64727C6.01889 5.60794 6.19158 5.53555 6.3794 5.44155C6.37964 5.44234 6.43796 5.42493 6.60256 5.46234C6.78186 5.50308 7.02364 5.59451 7.33031 5.74789C7.93827 6.05196 8.7249 6.5604 9.65421 7.24384C12.4591 9.64416 16.377 13.3437 20.2978 17.2342C16.2146 21.3015 12.0836 25.2122 9.16026 27.7124C8.23399 28.393 7.44993 28.8993 6.84375 29.2022C6.53799 29.355 6.29682 29.4461 6.11785 29.4868C5.95295 29.5243 5.89449 29.5068 5.89424 29.5076C5.70573 29.414 5.53236 29.342 5.37932 29.3032C5.30194 29.2835 5.21209 29.2677 5.11772 29.2691C5.02516 29.2705 4.89397 29.2891 4.76799 29.3717C4.45996 29.5737 4.4898 29.9104 4.51723 30.0402C4.54861 30.1886 4.62045 30.3331 4.68949 30.4523C4.96815 30.9332 5.58451 31.6349 6.20642 32.2558C6.82842 32.8768 7.53114 33.4918 8.01205 33.77C8.13117 33.8389 8.27547 33.9105 8.42347 33.9419C8.55174 33.9692 8.88992 34.0004 9.09225 33.6911C9.17502 33.5646 9.19321 33.4329 9.19427 33.3404C9.19536 33.246 9.17917 33.1563 9.15927 33.0792C9.11993 32.9266 9.04746 32.7539 8.95336 32.5661C8.95415 32.5659 8.93683 32.5078 8.97392 32.344C9.01439 32.1653 9.10535 31.9243 9.25811 31.6185C9.56094 31.0123 10.0675 30.2278 10.7488 29.3009C13.2492 26.3771 17.1607 22.2453 21.2287 18.1615C25.4705 22.4027 29.598 26.7508 32.199 29.7921C32.8797 30.7184 33.386 31.5025 33.6889 32.1086C33.8417 32.4144 33.9328 32.6556 33.9735 32.8345C34.011 32.9994 33.9935 33.0579 33.9943 33.0581C33.9944 33.0582 33.995 33.0566 33.9965 33.0538C33.9018 33.244 33.829 33.4188 33.7898 33.5731C33.7702 33.6504 33.7543 33.7403 33.7558 33.8347C33.7572 33.9272 33.7758 34.0584 33.8584 34.1844C34.0604 34.4924 34.3971 34.4626 34.5268 34.4351C34.6753 34.4038 34.8198 34.3319 34.9389 34.2629C35.4198 33.9842 36.1216 33.3679 36.7425 32.746C37.3634 32.124 37.9785 31.4212 38.2566 30.9403C38.3256 30.8212 38.3972 30.6769 38.4286 30.5289C38.4558 30.4006 38.4871 30.0625 38.1778 29.8601C38.0512 29.7774 37.9195 29.7592 37.8271 29.7581C37.7327 29.757 37.643 29.7732 37.5658 29.7931C37.4133 29.8325 37.2406 29.9049 37.0528 29.999C37.0525 29.9982 36.9945 30.0156 36.8307 29.9785C36.652 29.938 36.411 29.847 36.1052 29.6943C35.499 29.3914 34.7145 28.8848 33.7876 28.2036C30.7462 25.6026 26.398 21.4751 22.1569 17.2333C26.24 13.1654 30.3712 9.25405 33.2942 6.75326C34.2236 6.06971 35.0103 5.56119 35.6182 5.25708C35.9249 5.10368 36.1666 5.01226 36.3459 4.97152C36.5103 4.93416 36.5685 4.95153 36.5688 4.95073C36.7565 5.04477 36.9291 5.11721 37.0814 5.15658C37.1584 5.17649 37.2481 5.19272 37.3423 5.19172C37.4347 5.19073 37.5665 5.1727 37.6932 5.08985C38.0034 4.88705 37.9709 4.54786 37.9436 4.42027C37.9119 4.27253 37.84 4.12848 37.771 4.00959C37.4922 3.5295 36.8766 2.82765 36.2553 2.20622C35.634 1.58479 34.9323 0.969041 34.4522 0.690242C34.3333 0.621198 34.1893 0.549333 34.0415 0.517666C33.9136 0.490281 33.5746 0.458024 33.3719 0.76813C33.2891 0.894798 33.2711 1.02656 33.2701 1.11888C33.269 1.21313 33.2852 1.30277 33.3051 1.37983C33.3444 1.53223 33.4168 1.70492 33.5108 1.89274C33.51 1.89299 33.5275 1.9513 33.49 2.1159C33.4493 2.29521 33.3579 2.53698 33.2045 2.84366C32.9004 3.45161 32.392 4.23824 31.7085 5.16755Z" stroke="url(#paint1_linear_1410_9780)"/>
</g>
<defs>
<filter id="filter0_d_1410_9780" x="0.00210571" y="0.00213623" width="42.9417" height="42.9481" filterUnits="userSpaceOnUse" color-interpolation-filters="sRGB">
<feFlood flood-opacity="0" result="BackgroundImageFix"/>
<feColorMatrix in="SourceAlpha" type="matrix" values="0 0 0 0 0 0 0 0 0 0 0 0 0 0 0 0 0 0 127 0" result="hardAlpha"/>
<feOffset dy="4"/>
<feGaussianBlur stdDeviation="2"/>
<feComposite in2="hardAlpha" operator="out"/>
<feColorMatrix type="matrix" values="0 0 0 0 0 0 0 0 0 0 0 0 0 0 0 0 0 0 0.94 0"/>
<feBlend mode="normal" in2="BackgroundImageFix" result="effect1_dropShadow_1410_9780"/>
<feBlend mode="normal" in="SourceGraphic" in2="effect1_dropShadow_1410_9780" result="shape"/>
</filter>
<linearGradient id="paint0_linear_1410_9780" x1="21.4729" y1="-20.4247" x2="21.4729" y2="33.9447" gradientUnits="userSpaceOnUse">
<stop stop-color="#BF953F"/>
<stop offset="0.234375" stop-color="#FCF6BA"/>
<stop offset="0.515625" stop-color="#B38728"/>
<stop offset="0.78125" stop-color="#FBF5B7"/>
<stop offset="1" stop-color="#AA771C"/>
</linearGradient>
<linearGradient id="paint1_linear_1410_9780" x1="21.4729" y1="-20.4247" x2="21.4729" y2="33.9447" gradientUnits="userSpaceOnUse">
<stop stop-color="#BF953F"/>
<stop offset="0.234375" stop-color="#FCF6BA"/>
<stop offset="0.515625" stop-color="#B38728"/>
<stop offset="0.78125" stop-color="#FBF5B7"/>
<stop offset="1" stop-color="#AA771C"/>
</linearGradient>
</defs>
</svg>
