<svg width="38" height="39" viewBox="0 0 38 39" fill="none" xmlns="http://www.w3.org/2000/svg">
<g filter="url(#filter0_f_1410_9681)">
<path fill-rule="evenodd" clip-rule="evenodd" d="M15.9141 2.51868L15.6731 2.48444L15.4434 2.56475L8.82076 4.87981L8.47775 4.99972L8.29173 5.31185L1.66908 16.4242L1.41458 16.8512L1.60137 17.3119L7.79676 32.5913L7.98317 33.0511L8.46199 33.1808L23.8436 37.3479L24.4645 37.5161L24.875 37.0209L36.1976 23.362L36.57 22.9127L36.3621 22.3674L29.7394 5.00441L29.5293 4.45367L28.9458 4.37073L15.9141 2.51868ZM7.80938 10.0278L9.57741 7.06121L10.3759 7.37023L7.80938 10.0278ZM3.92117 16.9331L10.9169 9.68909L9.82866 22.9979L3.92117 16.9331ZM23.482 34.5714L12.6346 25.6153L26.5813 20.5775L23.482 34.5714ZM14.7753 7.72992L27.0692 17.0916L27.7337 6.46969L14.7753 7.72992ZM28.9901 18.4187L29.515 10.0281L33.5833 20.6941L28.9901 18.4187ZM28.6508 20.4826L33.8511 23.0588L25.9763 32.5585L28.6508 20.4826ZM11.1985 27.0232L19.8998 34.2073L9.95551 31.5133L11.1985 27.0232ZM5.37218 21.2891L8.54468 29.1133L9.52925 25.5569L5.37218 21.2891ZM14.9222 5.7062L20.3882 5.17463L16.1135 4.56711L14.9222 5.7062ZM11.7696 23.8013L12.9894 8.88384L25.884 18.7029L11.7696 23.8013ZM19.5061 16.1734L19.2525 15.3767C19.1553 15.071 19.0461 14.8122 18.925 14.6002C18.8032 14.3861 18.6707 14.2146 18.5273 14.0859C18.3855 13.9541 18.2339 13.8609 18.0727 13.8063C17.9137 13.7509 17.7461 13.7299 17.57 13.7432C17.3953 13.7536 17.2132 13.7942 17.0237 13.865C16.7884 13.9529 16.587 14.0706 16.4194 14.2181C16.254 14.3649 16.1293 14.5475 16.0453 14.7662C15.9606 14.9826 15.9235 15.2374 15.9339 15.5307C15.9436 15.8217 16.0096 16.1591 16.1317 16.5429L16.3852 17.3396C16.4825 17.6453 16.592 17.9053 16.7138 18.1195C16.8378 18.3328 16.9711 18.5065 17.1136 18.6405C17.2577 18.7714 17.4107 18.8653 17.5726 18.9222C17.7345 18.979 17.9028 19.0023 18.0774 18.992C18.2543 18.9808 18.4364 18.9402 18.6237 18.8702C18.859 18.7823 19.059 18.6639 19.2237 18.5149C19.3906 18.3652 19.516 18.181 19.6 17.9623C19.684 17.7437 19.7193 17.487 19.706 17.1924C19.6941 16.8947 19.6275 16.555 19.5061 16.1734ZM18.4266 15.5505L18.7547 16.5815C18.8321 16.8248 18.8822 17.0395 18.9049 17.2258C18.9276 17.4121 18.9237 17.5721 18.8931 17.7059C18.8618 17.8374 18.8061 17.9456 18.7258 18.0305C18.6456 18.1155 18.5434 18.1811 18.4192 18.2275C18.3212 18.2642 18.2258 18.2823 18.1331 18.282C18.0425 18.2809 17.955 18.2587 17.8705 18.2153C17.7875 18.1689 17.7075 18.1015 17.6306 18.0128C17.5529 17.922 17.4794 17.8059 17.4101 17.6645C17.3407 17.5232 17.2748 17.3543 17.2123 17.1579L16.8842 16.1269C16.8068 15.8837 16.7574 15.6711 16.7362 15.4893C16.7163 15.3045 16.7224 15.1474 16.7544 15.0181C16.7864 14.8888 16.8428 14.7828 16.9238 14.7001C17.004 14.6152 17.1051 14.5499 17.2271 14.5043C17.3274 14.4669 17.4227 14.4487 17.5133 14.4498C17.6031 14.4487 17.6903 14.4698 17.7748 14.5132C17.8585 14.5543 17.9378 14.6196 18.0126 14.709C18.0888 14.7953 18.1616 14.9092 18.231 15.0506C18.2996 15.1897 18.3649 15.3564 18.4266 15.5505ZM17.1116 19.3604L16.9071 18.7177L14.7111 19.5383L15.3709 17.9921C15.4664 17.7866 15.5506 17.5878 15.6235 17.3958C15.6958 17.2015 15.752 17.0144 15.7923 16.8346C15.8341 16.6517 15.8551 16.4765 15.8555 16.3091C15.8558 16.1417 15.8318 15.9821 15.7836 15.8303C15.6962 15.5558 15.5618 15.3402 15.3802 15.1833C15.2008 15.0256 14.9826 14.9336 14.7256 14.9073C14.4686 14.881 14.1811 14.9272 13.863 15.0461C13.5253 15.1723 13.259 15.3504 13.0641 15.5806C12.8685 15.8085 12.7451 16.0643 12.6941 16.3481C12.6423 16.6296 12.6615 16.9121 12.7516 17.1955L13.5392 16.9012C13.4831 16.7249 13.4639 16.5573 13.4816 16.3984C13.4985 16.2372 13.5545 16.0952 13.6495 15.9723C13.7445 15.8495 13.8802 15.7551 14.0566 15.6891C14.2091 15.6321 14.3498 15.6183 14.4785 15.6476C14.6066 15.6746 14.7167 15.7371 14.8088 15.835C14.9023 15.9299 14.9736 16.0543 15.0226 16.2083C15.0574 16.3177 15.0726 16.4381 15.0681 16.5696C15.0651 16.6981 15.0373 16.852 14.9847 17.0315C14.9321 17.2109 14.8521 17.4306 14.7447 17.6905L13.7464 19.9999L13.9222 20.5522L17.1116 19.3604ZM20.6402 26.0165L20.4518 25.4573L23.2225 24.3613L23.3844 24.8418L22.5461 26.8799C22.456 27.1092 22.3893 27.3028 22.346 27.4608C22.3027 27.6187 22.2807 27.754 22.28 27.8665C22.2781 27.9817 22.2931 28.0868 22.3252 28.182C22.3703 28.316 22.4345 28.4237 22.5177 28.5052C22.5997 28.5894 22.6968 28.6423 22.8092 28.6638C22.9222 28.6874 23.0449 28.6729 23.1774 28.6205C23.3307 28.5599 23.448 28.475 23.5292 28.3658C23.6104 28.2567 23.6572 28.1315 23.6696 27.9901C23.6827 27.8507 23.6634 27.7043 23.6117 27.5509L24.2959 27.2803C24.379 27.5269 24.4 27.7738 24.3589 28.0211C24.3184 28.2704 24.2144 28.4963 24.0468 28.6991C23.8798 28.9038 23.6496 29.0641 23.3563 29.1802C23.08 29.2895 22.8293 29.3347 22.6042 29.316C22.3791 29.2972 22.187 29.2202 22.0278 29.0852C21.8667 28.9508 21.746 28.7643 21.6655 28.5254C21.621 28.3934 21.5977 28.2541 21.5955 28.1075C21.5933 27.961 21.6091 27.8073 21.6429 27.6465C21.6754 27.4884 21.7218 27.3237 21.7821 27.1524C21.843 26.9831 21.9137 26.8077 21.9941 26.6263L22.5479 25.2619L20.6402 26.0165ZM18.4059 28.2866L18.6395 28.9798C18.7291 29.2459 18.8284 29.4706 18.9374 29.6542C19.047 29.8396 19.1655 29.9875 19.2927 30.0978C19.4187 30.2108 19.5526 30.2899 19.6943 30.335C19.8342 30.3809 19.981 30.3966 20.1348 30.3819C20.2873 30.37 20.4459 30.3315 20.6106 30.2663C20.815 30.1855 20.9893 30.0791 21.1336 29.9472C21.2761 29.816 21.3824 29.6541 21.4525 29.4613C21.5234 29.2704 21.552 29.0467 21.5385 28.7902C21.5257 28.5356 21.463 28.2414 21.3505 27.9074L21.117 27.2142C21.0274 26.9482 20.9278 26.7224 20.8181 26.537C20.7066 26.3522 20.5874 26.2024 20.4608 26.0875C20.3329 25.9752 20.1978 25.8956 20.0554 25.8485C19.913 25.8014 19.7655 25.7838 19.6129 25.7957C19.4585 25.8084 19.2999 25.847 19.1371 25.9113C18.9327 25.9922 18.7597 26.0992 18.6179 26.2323C18.4743 26.3661 18.3673 26.5294 18.2972 26.7222C18.227 26.915 18.1999 27.1403 18.216 27.398C18.2308 27.6584 18.2941 27.9546 18.4059 28.2866ZM19.3589 28.8141L19.0567 27.917C18.9854 27.7053 18.9385 27.5182 18.9158 27.3555C18.8932 27.1928 18.8943 27.0527 18.919 26.935C18.9444 26.8194 18.9915 26.7237 19.0604 26.6481C19.1293 26.5724 19.2176 26.5132 19.3255 26.4706C19.4107 26.4369 19.4938 26.4194 19.5749 26.4181C19.6541 26.4176 19.7309 26.4356 19.8054 26.4722C19.8787 26.5114 19.9496 26.5692 20.0182 26.6454C20.0874 26.7237 20.1534 26.8241 20.2162 26.9467C20.2789 27.0693 20.3391 27.2161 20.3967 27.3869L20.6989 28.284C20.7701 28.4956 20.8165 28.6809 20.8378 28.8397C20.8579 29.0012 20.8549 29.1388 20.8289 29.2525C20.8028 29.3662 20.755 29.4599 20.6855 29.5336C20.6166 29.6093 20.5292 29.6681 20.4232 29.71C20.3361 29.7445 20.253 29.7619 20.1738 29.7625C20.0953 29.7649 20.0188 29.7479 19.9443 29.7113C19.8704 29.6767 19.8002 29.6209 19.7335 29.5439C19.6655 29.4695 19.6002 29.3711 19.5374 29.2484C19.4753 29.1278 19.4158 28.983 19.3589 28.8141Z" fill="black" fill-opacity="0.91"/>
</g>
<path fill-rule="evenodd" clip-rule="evenodd" d="M16.0679 0.633268L15.829 0.599609L15.601 0.678609L8.97294 2.9753L8.63022 3.09406L8.44333 3.40491L1.81527 14.429L1.55688 14.8588L1.74673 15.3229L7.94718 30.4811L8.13479 30.9398L8.61338 31.0683L24.0076 35.2023L24.6244 35.368L25.0341 34.8781L36.3659 21.3276L36.7434 20.8761L36.5321 20.3269L29.904 3.10173L29.6928 2.55269L29.1102 2.47062L16.0679 0.633268ZM7.97019 8.0733L9.72522 5.15424L10.5178 5.45831L7.97019 8.0733ZM4.07134 14.9413L11.0683 7.75932L9.9799 20.9541L4.07134 14.9413ZM23.6448 32.4351L12.7982 23.558L26.7438 18.5647L23.6448 32.4351ZM14.9458 5.8175L27.2346 15.0935L27.8988 4.56882L14.9458 5.8175ZM29.1556 16.408L29.6805 8.09012L33.7491 18.6637L29.1556 16.408ZM28.8146 18.4687L34.0143 21.022L26.1404 30.4375L28.8146 18.4687ZM11.3484 24.9559L20.0339 32.0644L10.1076 29.3987L11.3484 24.9559ZM5.52298 19.2721L8.6941 27.0245L9.67825 23.5007L5.52298 19.2721ZM15.0919 3.79414L20.4806 3.27466L16.2664 2.68097L15.0919 3.79414ZM11.9212 21.7477L13.141 6.961L26.0353 16.694L11.9212 21.7477ZM19.6641 14.1877L19.4104 13.3973C19.313 13.094 19.2038 12.8372 19.0826 12.627C18.9607 12.4145 18.8281 12.2444 18.6846 12.1167C18.5426 11.986 18.391 11.8935 18.2296 11.8394C18.0705 11.7844 17.9028 11.7635 17.7265 11.7768C17.5517 11.787 17.3694 11.8273 17.1797 11.8976C16.9443 11.9848 16.7427 12.1016 16.575 12.2479C16.4094 12.3935 16.2846 12.5747 16.2006 12.7916C16.1158 13.0063 16.0786 13.2591 16.0891 13.55C16.0988 13.8387 16.1648 14.1735 16.287 14.5543L16.5407 15.3446C16.6381 15.6479 16.7477 15.9058 16.8696 16.1183C16.9937 16.3299 17.1271 16.5022 17.2698 16.6352C17.4139 16.7651 17.567 16.8582 17.7291 16.9146C17.8911 16.971 18.0595 16.9941 18.2343 16.9838C18.4113 16.9728 18.5936 16.9325 18.7811 16.8631C19.0166 16.7758 19.2167 16.6583 19.3815 16.5106C19.5485 16.362 19.6741 16.1793 19.7581 15.9624C19.8422 15.7455 19.8775 15.4908 19.8642 15.1985C19.8524 14.9032 19.7857 14.5662 19.6641 14.1877ZM18.5838 13.5697L18.9122 14.5925C18.9896 14.8338 19.0397 15.0469 19.0625 15.2317C19.0852 15.4165 19.0813 15.5752 19.0507 15.7079C19.0194 15.8384 18.9636 15.9458 18.8833 16.0301C18.803 16.1143 18.7007 16.1794 18.5764 16.2255C18.4783 16.2618 18.3828 16.2798 18.29 16.2795C18.1994 16.2784 18.1118 16.2564 18.0273 16.2134C17.9442 16.1674 17.8641 16.1004 17.7871 16.0125C17.7094 15.9224 17.6358 15.8072 17.5664 15.6669C17.497 15.5267 17.431 15.3592 17.3685 15.1643L17.0401 14.1415C16.9627 13.9002 16.9133 13.6894 16.892 13.509C16.8721 13.3256 16.8782 13.1698 16.9102 13.0415C16.9422 12.9132 16.9987 12.8081 17.0798 12.726C17.1601 12.6418 17.2613 12.5771 17.3834 12.5318C17.4837 12.4947 17.5791 12.4767 17.6697 12.4778C17.7596 12.4767 17.8469 12.4976 17.9314 12.5406C18.0153 12.5814 18.0946 12.6461 18.1694 12.7348C18.2457 12.8205 18.3186 12.9335 18.388 13.0737C18.4567 13.2118 18.522 13.3771 18.5838 13.5697ZM17.2677 17.3493L17.0631 16.7117L14.8652 17.5258L15.5255 15.9919C15.6211 15.788 15.7054 15.5909 15.7784 15.4003C15.8507 15.2076 15.907 15.022 15.9474 14.8436C15.9891 14.6621 16.0102 14.4884 16.0105 14.3223C16.0109 14.1562 15.9869 13.9978 15.9386 13.8473C15.8512 13.575 15.7166 13.361 15.5349 13.2054C15.3554 13.0489 15.137 12.9577 14.8798 12.9316C14.6226 12.9055 14.3348 12.9514 14.0165 13.0693C13.6785 13.1945 13.412 13.3712 13.2169 13.5995C13.0211 13.8256 12.8977 14.0794 12.8466 14.361C12.7947 14.6403 12.8139 14.9205 12.9042 15.2017L13.6924 14.9097C13.6362 14.7348 13.617 14.5685 13.6347 14.4109C13.6517 14.251 13.7077 14.1101 13.8028 13.9882C13.8978 13.8663 14.0336 13.7726 14.2103 13.7072C14.3629 13.6507 14.5036 13.6369 14.6325 13.666C14.7607 13.6928 14.8708 13.7548 14.963 13.852C15.0566 13.9461 15.128 14.0695 15.177 14.2223C15.2119 14.3308 15.227 14.4502 15.2226 14.5807C15.2196 14.7081 15.1917 14.8609 15.1391 15.0389C15.0865 15.2169 15.0064 15.4349 14.8989 15.6927L13.8998 17.9838L14.0757 18.5317L17.2677 17.3493ZM20.7992 23.9526L20.6107 23.3979L23.3836 22.3105L23.5456 22.7873L22.7066 24.8092C22.6165 25.0367 22.5497 25.2287 22.5064 25.3854C22.4631 25.5421 22.441 25.6763 22.4403 25.7879C22.4384 25.9022 22.4535 26.0065 22.4855 26.1009C22.5307 26.2338 22.5949 26.3407 22.6782 26.4216C22.7603 26.5051 22.8575 26.5576 22.97 26.579C23.0831 26.6023 23.2059 26.5879 23.3385 26.536C23.4919 26.4758 23.6093 26.3916 23.6905 26.2833C23.7718 26.175 23.8186 26.0508 23.8311 25.9106C23.8442 25.7723 23.8249 25.627 23.7732 25.4748L24.4579 25.2064C24.541 25.451 24.562 25.696 24.5209 25.9413C24.4804 26.1886 24.3763 26.4128 24.2086 26.6139C24.0415 26.817 23.8111 26.9761 23.5175 27.0912C23.241 27.1996 22.9901 27.2445 22.7648 27.2259C22.5395 27.2073 22.3472 27.1309 22.1879 26.9969C22.0267 26.8637 21.9059 26.6786 21.8254 26.4416C21.7808 26.3107 21.7575 26.1725 21.7553 26.0271C21.7531 25.8817 21.7689 25.7292 21.8027 25.5697C21.8353 25.4128 21.8817 25.2495 21.942 25.0795C22.003 24.9116 22.0737 24.7376 22.1542 24.5576L22.7085 23.204L20.7992 23.9526ZM18.5631 26.2048L18.7968 26.8924C18.8865 27.1564 18.9859 27.3793 19.095 27.5614C19.2047 27.7454 19.3233 27.8921 19.4506 28.0015C19.5767 28.1136 19.7107 28.1921 19.8526 28.2369C19.9925 28.2824 20.1395 28.2979 20.2934 28.2834C20.4461 28.2716 20.6048 28.2333 20.7696 28.1687C20.9741 28.0885 21.1486 27.983 21.293 27.8521C21.4356 27.722 21.542 27.5613 21.6122 27.3701C21.6831 27.1807 21.7118 26.9588 21.6983 26.7043C21.6854 26.4518 21.6227 26.1598 21.5101 25.8285L21.2764 25.1408C21.1867 24.8769 21.087 24.653 20.9772 24.469C20.8656 24.2857 20.7464 24.1371 20.6196 24.023C20.4917 23.9117 20.3564 23.8327 20.2139 23.7859C20.0714 23.7392 19.9238 23.7218 19.7711 23.7336C19.6165 23.7462 19.4578 23.7844 19.2949 23.8483C19.0903 23.9285 18.9171 24.0346 18.7753 24.1667C18.6315 24.2995 18.5245 24.4615 18.4543 24.6528C18.384 24.844 18.3569 25.0675 18.373 25.3232C18.3878 25.5815 18.4512 25.8754 18.5631 26.2048ZM19.5169 26.728L19.2144 25.838C19.1431 25.6281 19.0961 25.4424 19.0734 25.281C19.0508 25.1196 19.0518 24.9806 19.0766 24.8639C19.102 24.7491 19.1492 24.6542 19.2181 24.5792C19.287 24.5041 19.3755 24.4454 19.4834 24.4031C19.5687 24.3697 19.6519 24.3523 19.733 24.3511C19.8123 24.3506 19.8892 24.3684 19.9637 24.4047C20.0371 24.4436 20.108 24.5009 20.1767 24.5766C20.246 24.6542 20.312 24.7538 20.3748 24.8754C20.4376 24.9971 20.4979 25.1427 20.5555 25.3122L20.8579 26.2021C20.9292 26.4121 20.9756 26.5959 20.9969 26.7534C21.017 26.9136 21.0141 27.0501 20.988 27.1629C20.962 27.2758 20.9141 27.3687 20.8445 27.4419C20.7756 27.5169 20.6881 27.5752 20.582 27.6168C20.4949 27.651 20.4117 27.6683 20.3325 27.6689C20.2539 27.6713 20.1773 27.6544 20.1027 27.6181C20.0288 27.5838 19.9585 27.5284 19.8917 27.452C19.8237 27.3783 19.7583 27.2806 19.6955 27.1589C19.6334 27.0392 19.5738 26.8956 19.5169 26.728Z" fill="url(#paint0_linear_1410_9681)"/>
<defs>
<filter id="filter0_f_1410_9681" x="0" y="-1" width="38" height="39.5161" filterUnits="userSpaceOnUse" color-interpolation-filters="sRGB">
<feFlood flood-opacity="0" result="BackgroundImageFix"/>
<feBlend mode="normal" in="SourceGraphic" in2="BackgroundImageFix" result="shape"/>
<feGaussianBlur stdDeviation="0.5" result="effect1_foregroundBlur_1410_9681"/>
</filter>
<linearGradient id="paint0_linear_1410_9681" x1="19.15" y1="-22.0058" x2="19.15" y2="35.3599" gradientUnits="userSpaceOnUse">
<stop stop-color="#BF953F"/>
<stop offset="0.234375" stop-color="#FCF6BA"/>
<stop offset="0.515625" stop-color="#B38728"/>
<stop offset="0.78125" stop-color="#FBF5B7"/>
<stop offset="1" stop-color="#AA771C"/>
</linearGradient>
</defs>
</svg>
