<svg width="37" height="48" viewBox="0 0 37 48" fill="none" xmlns="http://www.w3.org/2000/svg">
<g filter="url(#filter0_d_1410_10474)">
<path d="M11.7763 10.7755C11.7763 10.7756 11.7757 10.7752 11.7743 10.7743L11.7763 10.7755Z" fill="#C4C4C4"/>
<path d="M11.7763 10.7755C11.7763 10.7756 11.7757 10.7752 11.7743 10.7743L11.7763 10.7755Z" fill="url(#paint0_linear_1410_10474)"/>
<path d="M9.23944 7.64617C9.23944 7.64615 9.23933 7.64612 9.23944 7.64617V7.64617Z" fill="#C4C4C4"/>
<path d="M9.23944 7.64617C9.23944 7.64615 9.23933 7.64612 9.23944 7.64617V7.64617Z" fill="url(#paint1_linear_1410_10474)"/>
<path d="M11.7763 28.2235C11.7763 28.2236 11.7757 28.2232 11.7743 28.2223L11.7763 28.2235Z" fill="#C4C4C4"/>
<path d="M11.7763 28.2235C11.7763 28.2236 11.7757 28.2232 11.7743 28.2223L11.7763 28.2235Z" fill="url(#paint2_linear_1410_10474)"/>
<path d="M9.23928 25.0941C9.23928 25.094 9.23995 25.0944 9.24129 25.0953L9.23928 25.0941Z" fill="#C4C4C4"/>
<path d="M9.23928 25.0941C9.23928 25.094 9.23995 25.0944 9.24129 25.0953L9.23928 25.0941Z" fill="url(#paint3_linear_1410_10474)"/>
<path fill-rule="evenodd" clip-rule="evenodd" d="M3 1H34V42.0541H3V1ZM24.8698 11.013C24.6073 11.6198 24.1534 12.2767 23.3438 12.2767C22.6234 12.2767 22.1285 11.8349 21.7836 11.3415C21.45 10.8644 21.1906 10.246 20.9578 9.69098L20.9452 9.66083C20.6969 9.0689 20.4752 8.54648 20.2094 8.16627C19.9488 7.79361 19.7171 7.65812 19.4688 7.65812C19.204 7.65812 19.0067 7.78103 18.807 8.07352C18.5966 8.38157 18.4392 8.79876 18.256 9.28405L18.2412 9.32328C18.0673 9.78403 17.8589 10.3344 17.5389 10.7233C17.3702 10.9284 17.1526 11.1124 16.8695 11.2139C16.5826 11.3169 16.273 11.3192 15.9501 11.2337C15.3013 11.0618 14.9203 10.6578 14.7008 10.1821C14.5064 9.76079 14.436 9.27361 14.3797 8.88436L14.3724 8.83364C14.308 8.39032 14.2555 8.09144 14.1436 7.89195C14.0961 7.80733 14.0461 7.75804 13.9895 7.72582C13.9312 7.69257 13.8317 7.65812 13.6562 7.65812C13.5083 7.65812 13.4131 7.69533 13.3426 7.74452C13.2668 7.79749 13.19 7.8855 13.1176 8.0272C12.9653 8.325 12.8811 8.75823 12.8208 9.26941C12.803 9.41986 12.7871 9.58192 12.771 9.74615C12.7373 10.0895 12.7026 10.4426 12.6483 10.7185C12.6074 10.9265 12.5444 11.1601 12.4249 11.3517C12.292 11.5648 12.06 11.7635 11.7188 11.7635C11.4075 11.7635 11.1723 11.5965 11.0157 11.4335C10.8585 11.2699 10.7301 11.0598 10.6227 10.8497C10.4107 10.4351 10.2201 9.89651 10.0444 9.39997L10.0365 9.37766C9.85111 8.85398 9.68098 8.37616 9.50256 8.0272C9.41324 7.85249 9.33729 7.74182 9.27878 7.68093L9.27253 7.67454C9.25737 7.68303 9.23745 7.69559 9.21251 7.71408C9.12679 7.77765 9.02067 7.88286 8.89848 8.03389C8.65484 8.33504 8.39955 8.75251 8.16273 9.19159C7.92815 9.6265 7.72164 10.0639 7.57324 10.394C7.49924 10.5587 7.44013 10.6957 7.3997 10.7911C7.37949 10.8388 7.36397 10.876 7.35361 10.9011L7.34201 10.9293L7.33922 10.9361L7.33861 10.9376L6.875 10.7503C6.41149 10.5628 6.41151 10.5628 6.41155 10.5627L6.41289 10.5594L6.41639 10.5508L6.4295 10.5189C6.4409 10.4914 6.45755 10.4514 6.47896 10.4009C6.52178 10.2999 6.58377 10.1562 6.66114 9.98408C6.81547 9.64072 7.03278 9.18003 7.28259 8.71688C7.53014 8.2579 7.81977 7.77732 8.12105 7.40492C8.27132 7.21918 8.43766 7.04374 8.61683 6.91086C8.79061 6.78199 9.02365 6.65812 9.29688 6.65812C9.60811 6.65812 9.84329 6.8251 9.99991 6.98812C10.1571 7.15174 10.2855 7.36181 10.3929 7.57198C10.6049 7.98657 10.7955 8.52516 10.9713 9.02171L10.9792 9.04399C11.1645 9.56767 11.3346 10.0455 11.5131 10.3944C11.5614 10.4889 11.6058 10.5647 11.6456 10.624C11.6527 10.5948 11.6599 10.5621 11.6671 10.5256C11.7124 10.2952 11.7383 10.029 11.7682 9.72106C11.7852 9.54544 11.8036 9.35605 11.8277 9.15224C11.8884 8.63706 11.9859 8.04394 12.2272 7.57198C12.3515 7.3288 12.5245 7.09607 12.7703 6.92452C13.0215 6.7492 13.3198 6.65812 13.6562 6.65812C13.9652 6.65812 14.2441 6.71989 14.4847 6.85703C14.7271 6.9952 14.8966 7.19047 15.0156 7.40253C15.231 7.78639 15.3017 8.27388 15.3577 8.65996L15.362 8.68994C15.4254 9.12681 15.4787 9.4812 15.6088 9.76307C15.7223 10.009 15.8862 10.1823 16.2061 10.267C16.3676 10.3098 16.4667 10.2961 16.5317 10.2727C16.6006 10.248 16.6782 10.1955 16.7667 10.0879C16.9614 9.85132 17.1163 9.47153 17.3057 8.97007L17.338 8.8843C17.5047 8.44134 17.7008 7.9202 17.9811 7.50962C18.2961 7.04838 18.7648 6.65812 19.4688 6.65812C20.1891 6.65812 20.684 7.09995 21.0289 7.59327C21.3625 8.0704 21.6219 8.68881 21.8547 9.24387L21.8673 9.27399C22.1156 9.86592 22.3373 10.3883 22.6031 10.7685C22.8637 11.1412 23.0954 11.2767 23.3438 11.2767C23.5028 11.2767 23.715 11.1638 23.952 10.616C24.177 10.0957 24.3351 9.37854 24.4879 8.60117C24.5089 8.49422 24.5299 8.38594 24.551 8.27711C24.6773 7.62462 24.8074 6.95217 24.9802 6.42508C25.081 6.11761 25.21 5.8136 25.3912 5.57822C25.5794 5.33361 25.8624 5.11859 26.25 5.11859C26.6083 5.11859 26.8943 5.2961 27.1059 5.50668C27.3145 5.71417 27.4865 5.98714 27.633 6.27174C27.9222 6.83338 28.1739 7.56683 28.4097 8.25389L28.4182 8.27874C28.6643 8.99578 28.8944 9.66263 29.1467 10.1526C29.2726 10.3972 29.3882 10.5653 29.49 10.6665C29.5876 10.7636 29.6347 10.7635 29.6405 10.7635C29.7802 10.7635 29.8741 10.71 29.967 10.5413C30.0749 10.3453 30.1432 10.0445 30.1715 9.68479C30.1989 9.33544 30.1855 8.97888 30.1639 8.70478C30.1532 8.56896 30.1408 8.45615 30.1311 8.37811C30.1263 8.33914 30.1222 8.30899 30.1194 8.28914L30.1162 8.26733L30.1155 8.2626C30.1155 8.26268 30.1154 8.26217 30.6094 8.18447C31.1033 8.10677 31.1033 8.10689 31.1033 8.10703L31.1035 8.10823L31.1039 8.11081L31.1052 8.11928L31.1095 8.14896C31.1131 8.17421 31.118 8.21021 31.1236 8.25544C31.1347 8.34578 31.1488 8.47352 31.1608 8.62636C31.1847 8.92959 31.2015 9.34279 31.1684 9.7632C31.1361 10.1732 31.053 10.6422 30.843 11.0236C30.6181 11.4322 30.2274 11.7635 29.6406 11.7635C29.2823 11.7635 28.9964 11.586 28.7847 11.3754C28.5761 11.1679 28.4041 10.895 28.2576 10.6104C27.9685 10.0488 27.7168 9.3154 27.481 8.62839L27.4724 8.60338C27.2263 7.88633 26.9962 7.21949 26.7439 6.72948C26.618 6.48487 26.5024 6.31683 26.4007 6.21561C26.312 6.12737 26.265 6.11938 26.2528 6.11866C26.2449 6.1233 26.2202 6.14061 26.1836 6.18817C26.1056 6.28957 26.0189 6.46666 25.9305 6.73651C25.7791 7.19841 25.6629 7.7973 25.5349 8.45652C25.5134 8.56746 25.4915 8.68012 25.4691 8.79412C25.3192 9.55628 25.1442 10.3786 24.8698 11.013ZM23.3438 29.7247C24.1534 29.7247 24.6073 29.0678 24.8698 28.461C25.1442 27.8266 25.3192 27.0043 25.4691 26.2421C25.4915 26.1281 25.5134 26.0154 25.5349 25.9045C25.6629 25.2453 25.7791 24.6464 25.9305 24.1845C26.0189 23.9146 26.1056 23.7376 26.1836 23.6362C26.2202 23.5886 26.2446 23.5714 26.2525 23.5668C26.2647 23.5675 26.312 23.5753 26.4007 23.6636C26.5024 23.7648 26.618 23.9328 26.7439 24.1775C26.9962 24.6675 27.2263 25.3343 27.4724 26.0514L27.481 26.0763C27.7167 26.7633 27.9685 27.4968 28.2576 28.0584C28.4041 28.3429 28.5761 28.6159 28.7847 28.8234C28.9964 29.034 29.2823 29.2115 29.6406 29.2115C30.2274 29.2115 30.6181 28.8801 30.843 28.4716C31.053 28.0902 31.1361 27.6212 31.1684 27.2112C31.2015 26.7908 31.1847 26.3776 31.1608 26.0743C31.1488 25.9215 31.1347 25.7938 31.1236 25.7034C31.118 25.6582 31.1131 25.6222 31.1095 25.5969L31.1052 25.5673L31.1039 25.5588L31.1035 25.5562L31.1033 25.555C31.1033 25.5549 31.1033 25.5547 30.6094 25.6324C30.1154 25.7101 30.1154 25.7101 30.1154 25.71L30.1162 25.7153L30.1194 25.7371C30.1222 25.757 30.1263 25.7871 30.1311 25.8261C30.1408 25.9041 30.1532 26.0169 30.1639 26.1528C30.1855 26.4269 30.1989 26.7834 30.1715 27.1328C30.1432 27.4925 30.0749 27.7933 29.967 27.9892C29.8741 28.158 29.7804 28.2115 29.6406 28.2115C29.6349 28.2115 29.5876 28.2116 29.49 28.1145C29.3882 28.0133 29.2726 27.8452 29.1467 27.6006C28.8944 27.1106 28.6643 26.4438 28.4182 25.7267L28.4097 25.7019C28.1739 25.0148 27.9222 24.2814 27.633 23.7197C27.4865 23.4351 27.3145 23.1621 27.1059 22.9547C26.8943 22.7441 26.6083 22.5666 26.25 22.5666C25.8624 22.5666 25.5794 22.7816 25.3912 23.0262C25.21 23.2616 25.081 23.5656 24.9802 23.8731C24.8074 24.4001 24.6773 25.0726 24.551 25.7251C24.5299 25.8339 24.5089 25.9422 24.4879 26.0492C24.3351 26.8265 24.177 27.5437 23.952 28.0639C23.715 28.6118 23.5028 28.7247 23.3438 28.7247C23.0954 28.7247 22.8637 28.5892 22.6031 28.2165C22.3373 27.8363 22.1156 27.3139 21.8673 26.722L21.8547 26.6918C21.6219 26.1368 21.3625 25.5184 21.0289 25.0412C20.684 24.5479 20.1891 24.1061 19.4688 24.1061C18.7648 24.1061 18.2961 24.4964 17.9811 24.9576C17.7008 25.3682 17.5047 25.8893 17.338 26.3323L17.3057 26.418C17.1163 26.9195 16.9614 27.2993 16.7667 27.5358C16.6782 27.6435 16.6006 27.696 16.5317 27.7207C16.4667 27.744 16.3676 27.7578 16.2061 27.715C15.8862 27.6303 15.7223 27.457 15.6088 27.211C15.4787 26.9292 15.4254 26.5748 15.362 26.1379L15.3577 26.1079C15.3017 25.7219 15.231 25.2344 15.0156 24.8505C14.8966 24.6384 14.7271 24.4432 14.4847 24.305C14.2441 24.1679 13.9652 24.1061 13.6562 24.1061C13.3198 24.1061 13.0215 24.1972 12.7703 24.3725C12.5245 24.5441 12.3515 24.7768 12.2272 25.02C11.9859 25.4919 11.8884 26.085 11.8277 26.6002C11.8036 26.8039 11.7853 26.9929 11.7682 27.1684C11.7383 27.4763 11.7124 27.7432 11.6671 27.9736C11.6599 28.0101 11.6527 28.0428 11.6456 28.072C11.6058 28.0127 11.5614 27.9369 11.5131 27.8424C11.3346 27.4935 11.1645 27.0156 10.9792 26.492L10.9713 26.4697C10.7955 25.9732 10.6049 25.4345 10.3929 25.02C10.2855 24.8098 10.1571 24.5997 9.99991 24.4361C9.84329 24.2731 9.60811 24.1061 9.29688 24.1061C9.02365 24.1061 8.79061 24.23 8.61683 24.3588C8.43766 24.4917 8.27132 24.6672 8.12105 24.8529C7.81977 25.2253 7.53014 25.7059 7.28259 26.1649C7.03278 26.628 6.81547 27.0887 6.66114 27.4321C6.58377 27.6042 6.52178 27.7478 6.47896 27.8489C6.45755 27.8994 6.4409 27.9394 6.4295 27.9669L6.41639 27.9988L6.41289 28.0074L6.41155 28.0107C6.41151 28.0108 6.41149 28.0108 6.875 28.1983L7.33849 28.3859L7.33922 28.3841L7.34201 28.3773L7.35361 28.349C7.36397 28.324 7.37949 28.2868 7.3997 28.2391C7.44013 28.1437 7.49924 28.0067 7.57324 27.842C7.72164 27.5118 7.92815 27.0745 8.16273 26.6396C8.39955 26.2005 8.65484 25.783 8.89848 25.4819C9.02067 25.3308 9.12679 25.2256 9.21251 25.1621C9.23745 25.1436 9.25737 25.131 9.27253 25.1225L9.27878 25.1289C9.33729 25.1898 9.41324 25.3005 9.50256 25.4752C9.68098 25.8241 9.85111 26.302 10.0365 26.8256L10.0443 26.8479C10.2201 27.3444 10.4107 27.883 10.6227 28.2976C10.7301 28.5078 10.8585 28.7179 11.0157 28.8815C11.1723 29.0445 11.4075 29.2115 11.7188 29.2115C12.06 29.2115 12.292 29.0128 12.4249 28.7997C12.5444 28.6081 12.6074 28.3745 12.6483 28.1665C12.7026 27.8906 12.7372 27.5378 12.7709 27.1944C12.7871 27.0302 12.803 26.8678 12.8208 26.7174C12.8811 26.2062 12.9653 25.773 13.1176 25.4752C13.19 25.3335 13.2668 25.2455 13.3426 25.1925C13.4131 25.1433 13.5083 25.1061 13.6562 25.1061C13.8317 25.1061 13.9312 25.1405 13.9895 25.1738C14.0461 25.206 14.0961 25.2553 14.1436 25.3399C14.2555 25.5394 14.308 25.8383 14.3724 26.2816L14.3797 26.3323C14.436 26.7216 14.5064 27.2088 14.7008 27.63C14.9203 28.1057 15.3013 28.5098 15.9501 28.6817C16.273 28.7672 16.5826 28.7649 16.8695 28.6619C17.1526 28.5603 17.3702 28.3763 17.5389 28.1712C17.8589 27.7823 18.0673 27.232 18.2412 26.7713L18.256 26.732C18.4392 26.2467 18.5966 25.8296 18.807 25.5215C19.0067 25.229 19.204 25.1061 19.4688 25.1061C19.7171 25.1061 19.9488 25.2416 20.2094 25.6143C20.4752 25.9945 20.6969 26.5169 20.9452 27.1088L20.9578 27.1389C21.1906 27.694 21.45 28.3124 21.7836 28.7895C22.1285 29.2828 22.6234 29.7247 23.3438 29.7247ZM12.2532 21.2646C12.1367 21.3963 11.9562 21.5138 11.7188 21.5138C11.3397 21.5138 11.0958 21.2428 10.9664 21.0577C10.822 20.851 10.7023 20.5833 10.5992 20.3061C10.3933 19.7524 10.2065 19.0266 10.0287 18.3358L10.0236 18.316C9.83967 17.6015 9.6648 16.9246 9.4791 16.4252C9.38842 16.1813 9.3062 16.0111 9.23638 15.9079C9.22901 15.9129 9.22106 15.9185 9.21251 15.9249C9.12679 15.9885 9.02067 16.0937 8.89848 16.2447C8.65484 16.5458 8.39955 16.9633 8.16273 17.4024C7.92815 17.8373 7.72164 18.2747 7.57324 18.6048C7.49924 18.7695 7.44013 18.9065 7.3997 19.0019C7.37949 19.0496 7.36397 19.0868 7.35361 19.1119L7.34201 19.1401L7.33922 19.1469L7.33861 19.1484L6.875 18.9611C6.41149 18.7736 6.41151 18.7736 6.41155 18.7735L6.41289 18.7702L6.41639 18.7616L6.4295 18.7297C6.4409 18.7022 6.45755 18.6622 6.47896 18.6117C6.52178 18.5107 6.58377 18.367 6.66114 18.1949C6.81547 17.8515 7.03278 17.3908 7.28259 16.9277C7.53014 16.4687 7.81977 15.9881 8.12105 15.6157C8.27132 15.43 8.43766 15.2545 8.61683 15.1217C8.79061 14.9928 9.02365 14.8689 9.29688 14.8689C9.67588 14.8689 9.91984 15.1399 10.0492 15.3251C10.1936 15.5318 10.3133 15.7994 10.4164 16.0767C10.6223 16.6304 10.8091 17.3561 10.9869 18.047L10.992 18.0667C11.176 18.7812 11.3508 19.4581 11.5365 19.9576C11.5642 20.032 11.5911 20.0995 11.617 20.1604C11.6325 20.0652 11.6472 19.9569 11.6608 19.8354C11.7091 19.4063 11.7377 18.892 11.769 18.3302C11.7859 18.0279 11.8035 17.7119 11.8254 17.388C11.8858 16.4912 11.9787 15.5434 12.1924 14.8117C12.299 14.447 12.4473 14.0928 12.6696 13.8214C12.904 13.535 13.2334 13.3294 13.6562 13.3294C14.0074 13.3294 14.3141 13.4377 14.5613 13.6482C14.7978 13.8496 14.9469 14.1165 15.0474 14.3825C15.2394 14.891 15.3045 15.5469 15.3623 16.1287L15.3647 16.1534C15.427 16.78 15.484 17.3444 15.6297 17.7863C15.7718 18.2174 15.9571 18.4119 16.2061 18.4778C16.3676 18.5206 16.4667 18.5068 16.5317 18.4835C16.6006 18.4588 16.6782 18.4063 16.7667 18.2987C16.9614 18.0621 17.1163 17.6823 17.3057 17.1809L17.338 17.0951C17.5047 16.6521 17.7008 16.131 17.9811 15.7204C18.2961 15.2592 18.7648 14.8689 19.4688 14.8689C20.1891 14.8689 20.684 15.3107 21.0289 15.8041C21.3625 16.2812 21.6219 16.8996 21.8547 17.4547L21.8673 17.4848C22.1156 18.0767 22.3373 18.5991 22.6031 18.9793C22.8637 19.352 23.0954 19.4875 23.3438 19.4875C23.6377 19.4875 23.8329 19.3662 24.0093 19.1284C24.2059 18.8632 24.3515 18.4863 24.5047 18.0317C24.5246 17.9726 24.5448 17.9116 24.5654 17.8494C24.6907 17.4712 24.8316 17.0459 25.0194 16.7116C25.2476 16.3054 25.6236 15.8953 26.25 15.8953C27.2379 15.8953 27.7405 16.6074 28.0788 17.0869L28.1112 17.1327C28.4991 17.6806 28.7231 17.948 29.1562 17.948C29.3879 17.948 29.5389 17.8712 29.6535 17.7632C29.7797 17.6445 29.8809 17.468 29.9564 17.2548C30.0308 17.0445 30.0701 16.8271 30.0901 16.6574C30.1 16.5739 30.1048 16.5049 30.1072 16.4582C30.1084 16.4349 30.1089 16.4174 30.1092 16.4065L30.1094 16.3954C30.1094 16.3956 30.1094 16.3953 30.6094 16.3953C31.1094 16.3953 31.1094 16.3954 31.1094 16.3956L31.1094 16.397L31.1094 16.3996L31.1093 16.4069L31.1089 16.4301C31.1084 16.4493 31.1076 16.4759 31.1059 16.5087C31.1026 16.5743 31.0961 16.6657 31.0832 16.7746C31.0578 16.9898 31.0063 17.2855 30.8991 17.5885C30.7929 17.8884 30.6217 18.2251 30.3391 18.4912C30.0451 18.7681 29.6512 18.948 29.1562 18.948C28.1683 18.948 27.6658 18.2359 27.3274 17.7563L27.295 17.7105C26.9072 17.1626 26.6832 16.8953 26.25 16.8953C26.1498 16.8953 26.0414 16.9341 25.8912 17.2015C25.7547 17.4445 25.6489 17.7618 25.52 18.1488C25.4982 18.2141 25.4757 18.2818 25.4523 18.3511C25.3028 18.7945 25.1154 19.3156 24.8125 19.7241C24.4894 20.1598 24.0186 20.4875 23.3438 20.4875C22.6234 20.4875 22.1285 20.0457 21.7836 19.5523C21.45 19.0752 21.1906 18.4568 20.9578 17.9018L20.9452 17.8716C20.6969 17.2797 20.4752 16.7573 20.2094 16.3771C19.9488 16.0044 19.7171 15.8689 19.4688 15.8689C19.204 15.8689 19.0067 15.9918 18.807 16.2843C18.5966 16.5924 18.4392 17.0096 18.256 17.4949L18.2412 17.5341C18.0673 17.9948 17.8589 18.5452 17.5389 18.9341C17.3702 19.1392 17.1526 19.3232 16.8695 19.4247C16.5826 19.5277 16.273 19.53 15.9501 19.4445C15.2304 19.2538 14.8708 18.6785 14.6799 18.0993C14.4981 17.5477 14.4324 16.8849 14.3749 16.3049L14.3696 16.2523C14.3069 15.6213 14.2501 15.1019 14.1118 14.7357C14.0457 14.5606 13.9754 14.4627 13.9129 14.4095C13.8611 14.3654 13.7895 14.3294 13.6562 14.3294C13.5948 14.3294 13.5306 14.3482 13.4433 14.4548C13.3439 14.5763 13.2425 14.7834 13.1523 15.0922C12.9725 15.7076 12.8837 16.5559 12.8231 17.4553C12.8033 17.7481 12.7865 18.0483 12.77 18.3439C12.7374 18.9265 12.7058 19.4913 12.6546 19.9471C12.6161 20.29 12.5622 20.619 12.4717 20.873C12.4268 20.9989 12.3603 21.1437 12.2532 21.2646ZM11.7188 38.9619C11.9562 38.9619 12.1367 38.8443 12.2532 38.7126C12.3603 38.5917 12.4268 38.4469 12.4717 38.321C12.5622 38.0671 12.6161 37.738 12.6546 37.3951C12.7058 36.9393 12.7374 36.3745 12.77 35.7919C12.7865 35.4963 12.8033 35.1961 12.8231 34.9033C12.8837 34.0039 12.9725 33.1556 13.1523 32.5402C13.2425 32.2314 13.3439 32.0243 13.4433 31.9028C13.5306 31.7963 13.5948 31.7774 13.6562 31.7774C13.7895 31.7774 13.8611 31.8134 13.9129 31.8575C13.9754 31.9107 14.0457 32.0086 14.1118 32.1837C14.2501 32.5499 14.3069 33.0693 14.3696 33.7003L14.3749 33.7529C14.4324 34.3329 14.4981 34.9957 14.6799 35.5473C14.8708 36.1265 15.2304 36.7019 15.9501 36.8925C16.273 36.978 16.5826 36.9757 16.8695 36.8728C17.1526 36.7712 17.3702 36.5872 17.5389 36.3821C17.8589 35.9932 18.0673 35.4428 18.2412 34.9821L18.256 34.9429C18.4392 34.4576 18.5966 34.0404 18.807 33.7323C19.0067 33.4398 19.204 33.3169 19.4688 33.3169C19.7171 33.3169 19.9488 33.4524 20.2094 33.8251C20.4752 34.2053 20.6969 34.7277 20.9452 35.3196L20.9578 35.3498C21.1906 35.9048 21.45 36.5232 21.7836 37.0004C22.1285 37.4937 22.6234 37.9355 23.3438 37.9355C24.0186 37.9355 24.4894 37.6078 24.8125 37.1721C25.1154 36.7637 25.3028 36.2426 25.4523 35.7991C25.4757 35.7297 25.4982 35.6622 25.52 35.5968C25.6489 35.2098 25.7547 34.8925 25.8912 34.6495C26.0414 34.3821 26.1498 34.3433 26.25 34.3433C26.6832 34.3433 26.9072 34.6106 27.295 35.1585L27.3274 35.2044C27.6658 35.6839 28.1683 36.396 29.1562 36.396C29.6512 36.396 30.0451 36.2161 30.3391 35.9392C30.6217 35.6731 30.7929 35.3364 30.8991 35.0365C31.0063 34.7336 31.0578 34.4378 31.0832 34.2226C31.0961 34.1137 31.1026 34.0223 31.1059 33.9567C31.1076 33.9239 31.1084 33.8973 31.1089 33.8781L31.1093 33.8549L31.1094 33.8476L31.1094 33.845L31.1094 33.8436C31.1094 33.8435 31.1094 33.8433 30.6094 33.8433C30.1094 33.8433 30.1094 33.8431 30.1094 33.843L30.1092 33.8545C30.1089 33.8654 30.1084 33.8829 30.1072 33.9062C30.1048 33.9529 30.1 34.0219 30.0901 34.1054C30.0701 34.2751 30.0308 34.4925 29.9564 34.7028C29.8809 34.916 29.7797 35.0925 29.6535 35.2112C29.5389 35.3193 29.3879 35.396 29.1562 35.396C28.7231 35.396 28.4991 35.1286 28.1112 34.5807L28.0788 34.5349C27.7405 34.0554 27.2379 33.3433 26.25 33.3433C25.6236 33.3433 25.2476 33.7535 25.0194 34.1597C24.8316 34.4939 24.6908 34.9188 24.5656 35.2971C24.5449 35.3594 24.5247 35.4205 24.5047 35.4797C24.3515 35.9343 24.2059 36.3112 24.0093 36.5764C23.8329 36.8142 23.6377 36.9355 23.3438 36.9355C23.0954 36.9355 22.8637 36.8 22.6031 36.4274C22.3373 36.0471 22.1156 35.5247 21.8673 34.9328L21.8547 34.9027C21.6219 34.3476 21.3625 33.7292 21.0289 33.2521C20.684 32.7588 20.1891 32.3169 19.4688 32.3169C18.7648 32.3169 18.2961 32.7072 17.9811 33.1684C17.7008 33.579 17.5047 34.1002 17.338 34.5431L17.3057 34.6289C17.1163 35.1303 16.9614 35.5101 16.7667 35.7467C16.6782 35.8543 16.6006 35.9068 16.5317 35.9315C16.4667 35.9549 16.3676 35.9686 16.2061 35.9258C15.9571 35.8599 15.7718 35.6654 15.6297 35.2343C15.484 34.7924 15.427 34.228 15.3647 33.6014L15.3623 33.5767C15.3045 32.9949 15.2394 32.3391 15.0474 31.8305C14.9469 31.5645 14.7978 31.2976 14.5613 31.0962C14.3141 30.8857 14.0074 30.7774 13.6562 30.7774C13.2334 30.7774 12.904 30.9831 12.6696 31.2694C12.4473 31.5408 12.299 31.895 12.1924 32.2598C11.9787 32.9914 11.8858 33.9393 11.8254 34.836C11.8035 35.1599 11.7859 35.4759 11.7691 35.7781C11.7377 36.34 11.7091 36.8543 11.6608 37.2835C11.6472 37.405 11.6325 37.5132 11.617 37.6084C11.5911 37.5475 11.5642 37.48 11.5365 37.4056C11.3508 36.9062 11.176 36.2292 10.992 35.5147L10.9869 35.495C10.8091 34.8041 10.6223 34.0784 10.4164 33.5247C10.3133 33.2474 10.1936 32.9798 10.0492 32.7731C9.91984 32.588 9.67588 32.3169 9.29688 32.3169C9.02365 32.3169 8.79061 32.4408 8.61683 32.5697C8.43766 32.7025 8.27132 32.878 8.12105 33.0637C7.81977 33.4361 7.53014 33.9167 7.28259 34.3757C7.03278 34.8388 6.81547 35.2995 6.66114 35.6429C6.58377 35.815 6.52178 35.9587 6.47896 36.0597C6.45755 36.1102 6.4409 36.1502 6.4295 36.1777L6.41639 36.2096L6.41289 36.2182L6.41155 36.2215C6.41151 36.2216 6.41149 36.2217 6.875 36.4092L7.33849 36.5967L7.33922 36.5949L7.34201 36.5881L7.35361 36.5599C7.36397 36.5348 7.37949 36.4976 7.3997 36.4499C7.44013 36.3545 7.49924 36.2175 7.57324 36.0528C7.72164 35.7227 7.92815 35.2853 8.16273 34.8504C8.39955 34.4113 8.65484 33.9938 8.89848 33.6927C9.02067 33.5417 9.12679 33.4365 9.21251 33.3729C9.22106 33.3666 9.22901 33.3609 9.23638 33.3559C9.3062 33.4591 9.38842 33.6293 9.4791 33.8732C9.6648 34.3726 9.83967 35.0495 10.0236 35.764L10.0287 35.7838C10.2065 36.4746 10.3933 37.2004 10.5992 37.7541C10.7023 38.0313 10.822 38.299 10.9664 38.5057C11.0958 38.6908 11.3397 38.9619 11.7188 38.9619Z" fill="#C4C4C4"/>
<path fill-rule="evenodd" clip-rule="evenodd" d="M3 1H34V42.0541H3V1ZM24.8698 11.013C24.6073 11.6198 24.1534 12.2767 23.3438 12.2767C22.6234 12.2767 22.1285 11.8349 21.7836 11.3415C21.45 10.8644 21.1906 10.246 20.9578 9.69098L20.9452 9.66083C20.6969 9.0689 20.4752 8.54648 20.2094 8.16627C19.9488 7.79361 19.7171 7.65812 19.4688 7.65812C19.204 7.65812 19.0067 7.78103 18.807 8.07352C18.5966 8.38157 18.4392 8.79876 18.256 9.28405L18.2412 9.32328C18.0673 9.78403 17.8589 10.3344 17.5389 10.7233C17.3702 10.9284 17.1526 11.1124 16.8695 11.2139C16.5826 11.3169 16.273 11.3192 15.9501 11.2337C15.3013 11.0618 14.9203 10.6578 14.7008 10.1821C14.5064 9.76079 14.436 9.27361 14.3797 8.88436L14.3724 8.83364C14.308 8.39032 14.2555 8.09144 14.1436 7.89195C14.0961 7.80733 14.0461 7.75804 13.9895 7.72582C13.9312 7.69257 13.8317 7.65812 13.6562 7.65812C13.5083 7.65812 13.4131 7.69533 13.3426 7.74452C13.2668 7.79749 13.19 7.8855 13.1176 8.0272C12.9653 8.325 12.8811 8.75823 12.8208 9.26941C12.803 9.41986 12.7871 9.58192 12.771 9.74615C12.7373 10.0895 12.7026 10.4426 12.6483 10.7185C12.6074 10.9265 12.5444 11.1601 12.4249 11.3517C12.292 11.5648 12.06 11.7635 11.7188 11.7635C11.4075 11.7635 11.1723 11.5965 11.0157 11.4335C10.8585 11.2699 10.7301 11.0598 10.6227 10.8497C10.4107 10.4351 10.2201 9.89651 10.0444 9.39997L10.0365 9.37766C9.85111 8.85398 9.68098 8.37616 9.50256 8.0272C9.41324 7.85249 9.33729 7.74182 9.27878 7.68093L9.27253 7.67454C9.25737 7.68303 9.23745 7.69559 9.21251 7.71408C9.12679 7.77765 9.02067 7.88286 8.89848 8.03389C8.65484 8.33504 8.39955 8.75251 8.16273 9.19159C7.92815 9.6265 7.72164 10.0639 7.57324 10.394C7.49924 10.5587 7.44013 10.6957 7.3997 10.7911C7.37949 10.8388 7.36397 10.876 7.35361 10.9011L7.34201 10.9293L7.33922 10.9361L7.33861 10.9376L6.875 10.7503C6.41149 10.5628 6.41151 10.5628 6.41155 10.5627L6.41289 10.5594L6.41639 10.5508L6.4295 10.5189C6.4409 10.4914 6.45755 10.4514 6.47896 10.4009C6.52178 10.2999 6.58377 10.1562 6.66114 9.98408C6.81547 9.64072 7.03278 9.18003 7.28259 8.71688C7.53014 8.2579 7.81977 7.77732 8.12105 7.40492C8.27132 7.21918 8.43766 7.04374 8.61683 6.91086C8.79061 6.78199 9.02365 6.65812 9.29688 6.65812C9.60811 6.65812 9.84329 6.8251 9.99991 6.98812C10.1571 7.15174 10.2855 7.36181 10.3929 7.57198C10.6049 7.98657 10.7955 8.52516 10.9713 9.02171L10.9792 9.04399C11.1645 9.56767 11.3346 10.0455 11.5131 10.3944C11.5614 10.4889 11.6058 10.5647 11.6456 10.624C11.6527 10.5948 11.6599 10.5621 11.6671 10.5256C11.7124 10.2952 11.7383 10.029 11.7682 9.72106C11.7852 9.54544 11.8036 9.35605 11.8277 9.15224C11.8884 8.63706 11.9859 8.04394 12.2272 7.57198C12.3515 7.3288 12.5245 7.09607 12.7703 6.92452C13.0215 6.7492 13.3198 6.65812 13.6562 6.65812C13.9652 6.65812 14.2441 6.71989 14.4847 6.85703C14.7271 6.9952 14.8966 7.19047 15.0156 7.40253C15.231 7.78639 15.3017 8.27388 15.3577 8.65996L15.362 8.68994C15.4254 9.12681 15.4787 9.4812 15.6088 9.76307C15.7223 10.009 15.8862 10.1823 16.2061 10.267C16.3676 10.3098 16.4667 10.2961 16.5317 10.2727C16.6006 10.248 16.6782 10.1955 16.7667 10.0879C16.9614 9.85132 17.1163 9.47153 17.3057 8.97007L17.338 8.8843C17.5047 8.44134 17.7008 7.9202 17.9811 7.50962C18.2961 7.04838 18.7648 6.65812 19.4688 6.65812C20.1891 6.65812 20.684 7.09995 21.0289 7.59327C21.3625 8.0704 21.6219 8.68881 21.8547 9.24387L21.8673 9.27399C22.1156 9.86592 22.3373 10.3883 22.6031 10.7685C22.8637 11.1412 23.0954 11.2767 23.3438 11.2767C23.5028 11.2767 23.715 11.1638 23.952 10.616C24.177 10.0957 24.3351 9.37854 24.4879 8.60117C24.5089 8.49422 24.5299 8.38594 24.551 8.27711C24.6773 7.62462 24.8074 6.95217 24.9802 6.42508C25.081 6.11761 25.21 5.8136 25.3912 5.57822C25.5794 5.33361 25.8624 5.11859 26.25 5.11859C26.6083 5.11859 26.8943 5.2961 27.1059 5.50668C27.3145 5.71417 27.4865 5.98714 27.633 6.27174C27.9222 6.83338 28.1739 7.56683 28.4097 8.25389L28.4182 8.27874C28.6643 8.99578 28.8944 9.66263 29.1467 10.1526C29.2726 10.3972 29.3882 10.5653 29.49 10.6665C29.5876 10.7636 29.6347 10.7635 29.6405 10.7635C29.7802 10.7635 29.8741 10.71 29.967 10.5413C30.0749 10.3453 30.1432 10.0445 30.1715 9.68479C30.1989 9.33544 30.1855 8.97888 30.1639 8.70478C30.1532 8.56896 30.1408 8.45615 30.1311 8.37811C30.1263 8.33914 30.1222 8.30899 30.1194 8.28914L30.1162 8.26733L30.1155 8.2626C30.1155 8.26268 30.1154 8.26217 30.6094 8.18447C31.1033 8.10677 31.1033 8.10689 31.1033 8.10703L31.1035 8.10823L31.1039 8.11081L31.1052 8.11928L31.1095 8.14896C31.1131 8.17421 31.118 8.21021 31.1236 8.25544C31.1347 8.34578 31.1488 8.47352 31.1608 8.62636C31.1847 8.92959 31.2015 9.34279 31.1684 9.7632C31.1361 10.1732 31.053 10.6422 30.843 11.0236C30.6181 11.4322 30.2274 11.7635 29.6406 11.7635C29.2823 11.7635 28.9964 11.586 28.7847 11.3754C28.5761 11.1679 28.4041 10.895 28.2576 10.6104C27.9685 10.0488 27.7168 9.3154 27.481 8.62839L27.4724 8.60338C27.2263 7.88633 26.9962 7.21949 26.7439 6.72948C26.618 6.48487 26.5024 6.31683 26.4007 6.21561C26.312 6.12737 26.265 6.11938 26.2528 6.11866C26.2449 6.1233 26.2202 6.14061 26.1836 6.18817C26.1056 6.28957 26.0189 6.46666 25.9305 6.73651C25.7791 7.19841 25.6629 7.7973 25.5349 8.45652C25.5134 8.56746 25.4915 8.68012 25.4691 8.79412C25.3192 9.55628 25.1442 10.3786 24.8698 11.013ZM23.3438 29.7247C24.1534 29.7247 24.6073 29.0678 24.8698 28.461C25.1442 27.8266 25.3192 27.0043 25.4691 26.2421C25.4915 26.1281 25.5134 26.0154 25.5349 25.9045C25.6629 25.2453 25.7791 24.6464 25.9305 24.1845C26.0189 23.9146 26.1056 23.7376 26.1836 23.6362C26.2202 23.5886 26.2446 23.5714 26.2525 23.5668C26.2647 23.5675 26.312 23.5753 26.4007 23.6636C26.5024 23.7648 26.618 23.9328 26.7439 24.1775C26.9962 24.6675 27.2263 25.3343 27.4724 26.0514L27.481 26.0763C27.7167 26.7633 27.9685 27.4968 28.2576 28.0584C28.4041 28.3429 28.5761 28.6159 28.7847 28.8234C28.9964 29.034 29.2823 29.2115 29.6406 29.2115C30.2274 29.2115 30.6181 28.8801 30.843 28.4716C31.053 28.0902 31.1361 27.6212 31.1684 27.2112C31.2015 26.7908 31.1847 26.3776 31.1608 26.0743C31.1488 25.9215 31.1347 25.7938 31.1236 25.7034C31.118 25.6582 31.1131 25.6222 31.1095 25.5969L31.1052 25.5673L31.1039 25.5588L31.1035 25.5562L31.1033 25.555C31.1033 25.5549 31.1033 25.5547 30.6094 25.6324C30.1154 25.7101 30.1154 25.7101 30.1154 25.71L30.1162 25.7153L30.1194 25.7371C30.1222 25.757 30.1263 25.7871 30.1311 25.8261C30.1408 25.9041 30.1532 26.0169 30.1639 26.1528C30.1855 26.4269 30.1989 26.7834 30.1715 27.1328C30.1432 27.4925 30.0749 27.7933 29.967 27.9892C29.8741 28.158 29.7804 28.2115 29.6406 28.2115C29.6349 28.2115 29.5876 28.2116 29.49 28.1145C29.3882 28.0133 29.2726 27.8452 29.1467 27.6006C28.8944 27.1106 28.6643 26.4438 28.4182 25.7267L28.4097 25.7019C28.1739 25.0148 27.9222 24.2814 27.633 23.7197C27.4865 23.4351 27.3145 23.1621 27.1059 22.9547C26.8943 22.7441 26.6083 22.5666 26.25 22.5666C25.8624 22.5666 25.5794 22.7816 25.3912 23.0262C25.21 23.2616 25.081 23.5656 24.9802 23.8731C24.8074 24.4001 24.6773 25.0726 24.551 25.7251C24.5299 25.8339 24.5089 25.9422 24.4879 26.0492C24.3351 26.8265 24.177 27.5437 23.952 28.0639C23.715 28.6118 23.5028 28.7247 23.3438 28.7247C23.0954 28.7247 22.8637 28.5892 22.6031 28.2165C22.3373 27.8363 22.1156 27.3139 21.8673 26.722L21.8547 26.6918C21.6219 26.1368 21.3625 25.5184 21.0289 25.0412C20.684 24.5479 20.1891 24.1061 19.4688 24.1061C18.7648 24.1061 18.2961 24.4964 17.9811 24.9576C17.7008 25.3682 17.5047 25.8893 17.338 26.3323L17.3057 26.418C17.1163 26.9195 16.9614 27.2993 16.7667 27.5358C16.6782 27.6435 16.6006 27.696 16.5317 27.7207C16.4667 27.744 16.3676 27.7578 16.2061 27.715C15.8862 27.6303 15.7223 27.457 15.6088 27.211C15.4787 26.9292 15.4254 26.5748 15.362 26.1379L15.3577 26.1079C15.3017 25.7219 15.231 25.2344 15.0156 24.8505C14.8966 24.6384 14.7271 24.4432 14.4847 24.305C14.2441 24.1679 13.9652 24.1061 13.6562 24.1061C13.3198 24.1061 13.0215 24.1972 12.7703 24.3725C12.5245 24.5441 12.3515 24.7768 12.2272 25.02C11.9859 25.4919 11.8884 26.085 11.8277 26.6002C11.8036 26.8039 11.7853 26.9929 11.7682 27.1684C11.7383 27.4763 11.7124 27.7432 11.6671 27.9736C11.6599 28.0101 11.6527 28.0428 11.6456 28.072C11.6058 28.0127 11.5614 27.9369 11.5131 27.8424C11.3346 27.4935 11.1645 27.0156 10.9792 26.492L10.9713 26.4697C10.7955 25.9732 10.6049 25.4345 10.3929 25.02C10.2855 24.8098 10.1571 24.5997 9.99991 24.4361C9.84329 24.2731 9.60811 24.1061 9.29688 24.1061C9.02365 24.1061 8.79061 24.23 8.61683 24.3588C8.43766 24.4917 8.27132 24.6672 8.12105 24.8529C7.81977 25.2253 7.53014 25.7059 7.28259 26.1649C7.03278 26.628 6.81547 27.0887 6.66114 27.4321C6.58377 27.6042 6.52178 27.7478 6.47896 27.8489C6.45755 27.8994 6.4409 27.9394 6.4295 27.9669L6.41639 27.9988L6.41289 28.0074L6.41155 28.0107C6.41151 28.0108 6.41149 28.0108 6.875 28.1983L7.33849 28.3859L7.33922 28.3841L7.34201 28.3773L7.35361 28.349C7.36397 28.324 7.37949 28.2868 7.3997 28.2391C7.44013 28.1437 7.49924 28.0067 7.57324 27.842C7.72164 27.5118 7.92815 27.0745 8.16273 26.6396C8.39955 26.2005 8.65484 25.783 8.89848 25.4819C9.02067 25.3308 9.12679 25.2256 9.21251 25.1621C9.23745 25.1436 9.25737 25.131 9.27253 25.1225L9.27878 25.1289C9.33729 25.1898 9.41324 25.3005 9.50256 25.4752C9.68098 25.8241 9.85111 26.302 10.0365 26.8256L10.0443 26.8479C10.2201 27.3444 10.4107 27.883 10.6227 28.2976C10.7301 28.5078 10.8585 28.7179 11.0157 28.8815C11.1723 29.0445 11.4075 29.2115 11.7188 29.2115C12.06 29.2115 12.292 29.0128 12.4249 28.7997C12.5444 28.6081 12.6074 28.3745 12.6483 28.1665C12.7026 27.8906 12.7372 27.5378 12.7709 27.1944C12.7871 27.0302 12.803 26.8678 12.8208 26.7174C12.8811 26.2062 12.9653 25.773 13.1176 25.4752C13.19 25.3335 13.2668 25.2455 13.3426 25.1925C13.4131 25.1433 13.5083 25.1061 13.6562 25.1061C13.8317 25.1061 13.9312 25.1405 13.9895 25.1738C14.0461 25.206 14.0961 25.2553 14.1436 25.3399C14.2555 25.5394 14.308 25.8383 14.3724 26.2816L14.3797 26.3323C14.436 26.7216 14.5064 27.2088 14.7008 27.63C14.9203 28.1057 15.3013 28.5098 15.9501 28.6817C16.273 28.7672 16.5826 28.7649 16.8695 28.6619C17.1526 28.5603 17.3702 28.3763 17.5389 28.1712C17.8589 27.7823 18.0673 27.232 18.2412 26.7713L18.256 26.732C18.4392 26.2467 18.5966 25.8296 18.807 25.5215C19.0067 25.229 19.204 25.1061 19.4688 25.1061C19.7171 25.1061 19.9488 25.2416 20.2094 25.6143C20.4752 25.9945 20.6969 26.5169 20.9452 27.1088L20.9578 27.1389C21.1906 27.694 21.45 28.3124 21.7836 28.7895C22.1285 29.2828 22.6234 29.7247 23.3438 29.7247ZM12.2532 21.2646C12.1367 21.3963 11.9562 21.5138 11.7188 21.5138C11.3397 21.5138 11.0958 21.2428 10.9664 21.0577C10.822 20.851 10.7023 20.5833 10.5992 20.3061C10.3933 19.7524 10.2065 19.0266 10.0287 18.3358L10.0236 18.316C9.83967 17.6015 9.6648 16.9246 9.4791 16.4252C9.38842 16.1813 9.3062 16.0111 9.23638 15.9079C9.22901 15.9129 9.22106 15.9185 9.21251 15.9249C9.12679 15.9885 9.02067 16.0937 8.89848 16.2447C8.65484 16.5458 8.39955 16.9633 8.16273 17.4024C7.92815 17.8373 7.72164 18.2747 7.57324 18.6048C7.49924 18.7695 7.44013 18.9065 7.3997 19.0019C7.37949 19.0496 7.36397 19.0868 7.35361 19.1119L7.34201 19.1401L7.33922 19.1469L7.33861 19.1484L6.875 18.9611C6.41149 18.7736 6.41151 18.7736 6.41155 18.7735L6.41289 18.7702L6.41639 18.7616L6.4295 18.7297C6.4409 18.7022 6.45755 18.6622 6.47896 18.6117C6.52178 18.5107 6.58377 18.367 6.66114 18.1949C6.81547 17.8515 7.03278 17.3908 7.28259 16.9277C7.53014 16.4687 7.81977 15.9881 8.12105 15.6157C8.27132 15.43 8.43766 15.2545 8.61683 15.1217C8.79061 14.9928 9.02365 14.8689 9.29688 14.8689C9.67588 14.8689 9.91984 15.1399 10.0492 15.3251C10.1936 15.5318 10.3133 15.7994 10.4164 16.0767C10.6223 16.6304 10.8091 17.3561 10.9869 18.047L10.992 18.0667C11.176 18.7812 11.3508 19.4581 11.5365 19.9576C11.5642 20.032 11.5911 20.0995 11.617 20.1604C11.6325 20.0652 11.6472 19.9569 11.6608 19.8354C11.7091 19.4063 11.7377 18.892 11.769 18.3302C11.7859 18.0279 11.8035 17.7119 11.8254 17.388C11.8858 16.4912 11.9787 15.5434 12.1924 14.8117C12.299 14.447 12.4473 14.0928 12.6696 13.8214C12.904 13.535 13.2334 13.3294 13.6562 13.3294C14.0074 13.3294 14.3141 13.4377 14.5613 13.6482C14.7978 13.8496 14.9469 14.1165 15.0474 14.3825C15.2394 14.891 15.3045 15.5469 15.3623 16.1287L15.3647 16.1534C15.427 16.78 15.484 17.3444 15.6297 17.7863C15.7718 18.2174 15.9571 18.4119 16.2061 18.4778C16.3676 18.5206 16.4667 18.5068 16.5317 18.4835C16.6006 18.4588 16.6782 18.4063 16.7667 18.2987C16.9614 18.0621 17.1163 17.6823 17.3057 17.1809L17.338 17.0951C17.5047 16.6521 17.7008 16.131 17.9811 15.7204C18.2961 15.2592 18.7648 14.8689 19.4688 14.8689C20.1891 14.8689 20.684 15.3107 21.0289 15.8041C21.3625 16.2812 21.6219 16.8996 21.8547 17.4547L21.8673 17.4848C22.1156 18.0767 22.3373 18.5991 22.6031 18.9793C22.8637 19.352 23.0954 19.4875 23.3438 19.4875C23.6377 19.4875 23.8329 19.3662 24.0093 19.1284C24.2059 18.8632 24.3515 18.4863 24.5047 18.0317C24.5246 17.9726 24.5448 17.9116 24.5654 17.8494C24.6907 17.4712 24.8316 17.0459 25.0194 16.7116C25.2476 16.3054 25.6236 15.8953 26.25 15.8953C27.2379 15.8953 27.7405 16.6074 28.0788 17.0869L28.1112 17.1327C28.4991 17.6806 28.7231 17.948 29.1562 17.948C29.3879 17.948 29.5389 17.8712 29.6535 17.7632C29.7797 17.6445 29.8809 17.468 29.9564 17.2548C30.0308 17.0445 30.0701 16.8271 30.0901 16.6574C30.1 16.5739 30.1048 16.5049 30.1072 16.4582C30.1084 16.4349 30.1089 16.4174 30.1092 16.4065L30.1094 16.3954C30.1094 16.3956 30.1094 16.3953 30.6094 16.3953C31.1094 16.3953 31.1094 16.3954 31.1094 16.3956L31.1094 16.397L31.1094 16.3996L31.1093 16.4069L31.1089 16.4301C31.1084 16.4493 31.1076 16.4759 31.1059 16.5087C31.1026 16.5743 31.0961 16.6657 31.0832 16.7746C31.0578 16.9898 31.0063 17.2855 30.8991 17.5885C30.7929 17.8884 30.6217 18.2251 30.3391 18.4912C30.0451 18.7681 29.6512 18.948 29.1562 18.948C28.1683 18.948 27.6658 18.2359 27.3274 17.7563L27.295 17.7105C26.9072 17.1626 26.6832 16.8953 26.25 16.8953C26.1498 16.8953 26.0414 16.9341 25.8912 17.2015C25.7547 17.4445 25.6489 17.7618 25.52 18.1488C25.4982 18.2141 25.4757 18.2818 25.4523 18.3511C25.3028 18.7945 25.1154 19.3156 24.8125 19.7241C24.4894 20.1598 24.0186 20.4875 23.3438 20.4875C22.6234 20.4875 22.1285 20.0457 21.7836 19.5523C21.45 19.0752 21.1906 18.4568 20.9578 17.9018L20.9452 17.8716C20.6969 17.2797 20.4752 16.7573 20.2094 16.3771C19.9488 16.0044 19.7171 15.8689 19.4688 15.8689C19.204 15.8689 19.0067 15.9918 18.807 16.2843C18.5966 16.5924 18.4392 17.0096 18.256 17.4949L18.2412 17.5341C18.0673 17.9948 17.8589 18.5452 17.5389 18.9341C17.3702 19.1392 17.1526 19.3232 16.8695 19.4247C16.5826 19.5277 16.273 19.53 15.9501 19.4445C15.2304 19.2538 14.8708 18.6785 14.6799 18.0993C14.4981 17.5477 14.4324 16.8849 14.3749 16.3049L14.3696 16.2523C14.3069 15.6213 14.2501 15.1019 14.1118 14.7357C14.0457 14.5606 13.9754 14.4627 13.9129 14.4095C13.8611 14.3654 13.7895 14.3294 13.6562 14.3294C13.5948 14.3294 13.5306 14.3482 13.4433 14.4548C13.3439 14.5763 13.2425 14.7834 13.1523 15.0922C12.9725 15.7076 12.8837 16.5559 12.8231 17.4553C12.8033 17.7481 12.7865 18.0483 12.77 18.3439C12.7374 18.9265 12.7058 19.4913 12.6546 19.9471C12.6161 20.29 12.5622 20.619 12.4717 20.873C12.4268 20.9989 12.3603 21.1437 12.2532 21.2646ZM11.7188 38.9619C11.9562 38.9619 12.1367 38.8443 12.2532 38.7126C12.3603 38.5917 12.4268 38.4469 12.4717 38.321C12.5622 38.0671 12.6161 37.738 12.6546 37.3951C12.7058 36.9393 12.7374 36.3745 12.77 35.7919C12.7865 35.4963 12.8033 35.1961 12.8231 34.9033C12.8837 34.0039 12.9725 33.1556 13.1523 32.5402C13.2425 32.2314 13.3439 32.0243 13.4433 31.9028C13.5306 31.7963 13.5948 31.7774 13.6562 31.7774C13.7895 31.7774 13.8611 31.8134 13.9129 31.8575C13.9754 31.9107 14.0457 32.0086 14.1118 32.1837C14.2501 32.5499 14.3069 33.0693 14.3696 33.7003L14.3749 33.7529C14.4324 34.3329 14.4981 34.9957 14.6799 35.5473C14.8708 36.1265 15.2304 36.7019 15.9501 36.8925C16.273 36.978 16.5826 36.9757 16.8695 36.8728C17.1526 36.7712 17.3702 36.5872 17.5389 36.3821C17.8589 35.9932 18.0673 35.4428 18.2412 34.9821L18.256 34.9429C18.4392 34.4576 18.5966 34.0404 18.807 33.7323C19.0067 33.4398 19.204 33.3169 19.4688 33.3169C19.7171 33.3169 19.9488 33.4524 20.2094 33.8251C20.4752 34.2053 20.6969 34.7277 20.9452 35.3196L20.9578 35.3498C21.1906 35.9048 21.45 36.5232 21.7836 37.0004C22.1285 37.4937 22.6234 37.9355 23.3438 37.9355C24.0186 37.9355 24.4894 37.6078 24.8125 37.1721C25.1154 36.7637 25.3028 36.2426 25.4523 35.7991C25.4757 35.7297 25.4982 35.6622 25.52 35.5968C25.6489 35.2098 25.7547 34.8925 25.8912 34.6495C26.0414 34.3821 26.1498 34.3433 26.25 34.3433C26.6832 34.3433 26.9072 34.6106 27.295 35.1585L27.3274 35.2044C27.6658 35.6839 28.1683 36.396 29.1562 36.396C29.6512 36.396 30.0451 36.2161 30.3391 35.9392C30.6217 35.6731 30.7929 35.3364 30.8991 35.0365C31.0063 34.7336 31.0578 34.4378 31.0832 34.2226C31.0961 34.1137 31.1026 34.0223 31.1059 33.9567C31.1076 33.9239 31.1084 33.8973 31.1089 33.8781L31.1093 33.8549L31.1094 33.8476L31.1094 33.845L31.1094 33.8436C31.1094 33.8435 31.1094 33.8433 30.6094 33.8433C30.1094 33.8433 30.1094 33.8431 30.1094 33.843L30.1092 33.8545C30.1089 33.8654 30.1084 33.8829 30.1072 33.9062C30.1048 33.9529 30.1 34.0219 30.0901 34.1054C30.0701 34.2751 30.0308 34.4925 29.9564 34.7028C29.8809 34.916 29.7797 35.0925 29.6535 35.2112C29.5389 35.3193 29.3879 35.396 29.1562 35.396C28.7231 35.396 28.4991 35.1286 28.1112 34.5807L28.0788 34.5349C27.7405 34.0554 27.2379 33.3433 26.25 33.3433C25.6236 33.3433 25.2476 33.7535 25.0194 34.1597C24.8316 34.4939 24.6908 34.9188 24.5656 35.2971C24.5449 35.3594 24.5247 35.4205 24.5047 35.4797C24.3515 35.9343 24.2059 36.3112 24.0093 36.5764C23.8329 36.8142 23.6377 36.9355 23.3438 36.9355C23.0954 36.9355 22.8637 36.8 22.6031 36.4274C22.3373 36.0471 22.1156 35.5247 21.8673 34.9328L21.8547 34.9027C21.6219 34.3476 21.3625 33.7292 21.0289 33.2521C20.684 32.7588 20.1891 32.3169 19.4688 32.3169C18.7648 32.3169 18.2961 32.7072 17.9811 33.1684C17.7008 33.579 17.5047 34.1002 17.338 34.5431L17.3057 34.6289C17.1163 35.1303 16.9614 35.5101 16.7667 35.7467C16.6782 35.8543 16.6006 35.9068 16.5317 35.9315C16.4667 35.9549 16.3676 35.9686 16.2061 35.9258C15.9571 35.8599 15.7718 35.6654 15.6297 35.2343C15.484 34.7924 15.427 34.228 15.3647 33.6014L15.3623 33.5767C15.3045 32.9949 15.2394 32.3391 15.0474 31.8305C14.9469 31.5645 14.7978 31.2976 14.5613 31.0962C14.3141 30.8857 14.0074 30.7774 13.6562 30.7774C13.2334 30.7774 12.904 30.9831 12.6696 31.2694C12.4473 31.5408 12.299 31.895 12.1924 32.2598C11.9787 32.9914 11.8858 33.9393 11.8254 34.836C11.8035 35.1599 11.7859 35.4759 11.7691 35.7781C11.7377 36.34 11.7091 36.8543 11.6608 37.2835C11.6472 37.405 11.6325 37.5132 11.617 37.6084C11.5911 37.5475 11.5642 37.48 11.5365 37.4056C11.3508 36.9062 11.176 36.2292 10.992 35.5147L10.9869 35.495C10.8091 34.8041 10.6223 34.0784 10.4164 33.5247C10.3133 33.2474 10.1936 32.9798 10.0492 32.7731C9.91984 32.588 9.67588 32.3169 9.29688 32.3169C9.02365 32.3169 8.79061 32.4408 8.61683 32.5697C8.43766 32.7025 8.27132 32.878 8.12105 33.0637C7.81977 33.4361 7.53014 33.9167 7.28259 34.3757C7.03278 34.8388 6.81547 35.2995 6.66114 35.6429C6.58377 35.815 6.52178 35.9587 6.47896 36.0597C6.45755 36.1102 6.4409 36.1502 6.4295 36.1777L6.41639 36.2096L6.41289 36.2182L6.41155 36.2215C6.41151 36.2216 6.41149 36.2217 6.875 36.4092L7.33849 36.5967L7.33922 36.5949L7.34201 36.5881L7.35361 36.5599C7.36397 36.5348 7.37949 36.4976 7.3997 36.4499C7.44013 36.3545 7.49924 36.2175 7.57324 36.0528C7.72164 35.7227 7.92815 35.2853 8.16273 34.8504C8.39955 34.4113 8.65484 33.9938 8.89848 33.6927C9.02067 33.5417 9.12679 33.4365 9.21251 33.3729C9.22106 33.3666 9.22901 33.3609 9.23638 33.3559C9.3062 33.4591 9.38842 33.6293 9.4791 33.8732C9.6648 34.3726 9.83967 35.0495 10.0236 35.764L10.0287 35.7838C10.2065 36.4746 10.3933 37.2004 10.5992 37.7541C10.7023 38.0313 10.822 38.299 10.9664 38.5057C11.0958 38.6908 11.3397 38.9619 11.7188 38.9619Z" fill="url(#paint4_linear_1410_10474)"/>
</g>
<defs>
<filter id="filter0_d_1410_10474" x="0" y="0" width="37" height="47.0541" filterUnits="userSpaceOnUse" color-interpolation-filters="sRGB">
<feFlood flood-opacity="0" result="BackgroundImageFix"/>
<feColorMatrix in="SourceAlpha" type="matrix" values="0 0 0 0 0 0 0 0 0 0 0 0 0 0 0 0 0 0 127 0" result="hardAlpha"/>
<feOffset dy="2"/>
<feGaussianBlur stdDeviation="1.5"/>
<feComposite in2="hardAlpha" operator="out"/>
<feColorMatrix type="matrix" values="0 0 0 0 0 0 0 0 0 0 0 0 0 0 0 0 0 0 0.75 0"/>
<feBlend mode="normal" in2="BackgroundImageFix" result="effect1_dropShadow_1410_10474"/>
<feBlend mode="normal" in="SourceGraphic" in2="effect1_dropShadow_1410_10474" result="shape"/>
</filter>
<linearGradient id="paint0_linear_1410_10474" x1="-3.29688" y1="-8.23716" x2="38.8278" y2="57.8647" gradientUnits="userSpaceOnUse">
<stop stop-color="#BF953F"/>
<stop offset="0.234375" stop-color="#FCF6BA"/>
<stop offset="0.515625" stop-color="#B38728"/>
<stop offset="0.78125" stop-color="#FBF5B7"/>
<stop offset="1" stop-color="#AA771C"/>
</linearGradient>
<linearGradient id="paint1_linear_1410_10474" x1="-3.29688" y1="-8.23716" x2="38.8278" y2="57.8647" gradientUnits="userSpaceOnUse">
<stop stop-color="#BF953F"/>
<stop offset="0.234375" stop-color="#FCF6BA"/>
<stop offset="0.515625" stop-color="#B38728"/>
<stop offset="0.78125" stop-color="#FBF5B7"/>
<stop offset="1" stop-color="#AA771C"/>
</linearGradient>
<linearGradient id="paint2_linear_1410_10474" x1="-3.29688" y1="-8.23716" x2="38.8278" y2="57.8647" gradientUnits="userSpaceOnUse">
<stop stop-color="#BF953F"/>
<stop offset="0.234375" stop-color="#FCF6BA"/>
<stop offset="0.515625" stop-color="#B38728"/>
<stop offset="0.78125" stop-color="#FBF5B7"/>
<stop offset="1" stop-color="#AA771C"/>
</linearGradient>
<linearGradient id="paint3_linear_1410_10474" x1="-3.29688" y1="-8.23716" x2="38.8278" y2="57.8647" gradientUnits="userSpaceOnUse">
<stop stop-color="#BF953F"/>
<stop offset="0.234375" stop-color="#FCF6BA"/>
<stop offset="0.515625" stop-color="#B38728"/>
<stop offset="0.78125" stop-color="#FBF5B7"/>
<stop offset="1" stop-color="#AA771C"/>
</linearGradient>
<linearGradient id="paint4_linear_1410_10474" x1="-3.29688" y1="-8.23716" x2="38.8278" y2="57.8647" gradientUnits="userSpaceOnUse">
<stop stop-color="#BF953F"/>
<stop offset="0.234375" stop-color="#FCF6BA"/>
<stop offset="0.515625" stop-color="#B38728"/>
<stop offset="0.78125" stop-color="#FBF5B7"/>
<stop offset="1" stop-color="#AA771C"/>
</linearGradient>
</defs>
</svg>
