<svg width="57" height="64" viewBox="0 0 57 64" fill="none" xmlns="http://www.w3.org/2000/svg">
<g filter="url(#filter0_d_1410_10522)">
<path d="M28.3182 2C29.9716 5.19081 33.6456 8.3627 38.4784 10.3823C43.6612 12.5478 48.8779 12.845 52.3729 11.4954C52.7855 13.0273 53.0045 14.6781 52.9999 16.4478C52.9321 42.7051 28.5 57.6216 28.5 57.6216C28.5 57.6216 4.06757 42.7037 4.00007 16.4478C3.99563 14.724 4.20327 13.1138 4.59497 11.617C8.08333 12.8247 13.1368 12.4802 18.1581 10.3823C22.9908 8.3627 26.6647 5.19081 28.3182 2Z" fill="#424242"/>
</g>
<path d="M28.3281 3.32471C29.8922 6.37945 33.3676 9.41608 37.9392 11.3495C42.8418 13.4227 47.7765 13.7072 51.0827 12.4152C51.4729 13.8818 51.6802 15.4622 51.6758 17.1564C51.6116 42.294 28.5001 56.5744 28.5001 56.5744C28.5001 56.5744 5.38829 42.2927 5.32444 17.1564C5.32023 15.5062 5.51665 13.9646 5.88718 12.5316C9.187 13.6878 13.9673 13.358 18.7172 11.3495C23.2887 9.41608 26.764 6.37945 28.3281 3.32471Z" fill="#595959"/>
<path d="M28.3281 3.32471C29.8922 6.37945 33.3676 9.41608 37.9392 11.3495C42.8418 13.4227 47.7765 13.7072 51.0827 12.4152C51.4729 13.8818 51.6802 15.4622 51.6758 17.1564C51.6116 42.294 28.5001 56.5744 28.5001 56.5744C28.5001 56.5744 5.38829 42.2927 5.32444 17.1564C5.32023 15.5062 5.51665 13.9646 5.88718 12.5316C9.187 13.6878 13.9673 13.358 18.7172 11.3495C23.2887 9.41608 26.764 6.37945 28.3281 3.32471Z" fill="url(#paint0_linear_1410_10522)"/>
<path d="M19.2762 12.6852C23.152 11.0421 26.1922 8.55604 27.8379 5.97253V28.9391H8.21631C7.24354 25.6313 6.65854 22.0379 6.64874 18.1731C6.64478 16.6135 6.82997 15.1566 7.17933 13.8024C10.2906 14.895 14.7977 14.5834 19.2762 12.6852Z" fill="#FFF8BD"/>
<path d="M29.1622 54.9886V30.2634H48.369C43.675 44.382 32.0583 53.0113 29.1622 54.9886Z" fill="#FFF8BD"/>
<path d="M8.6351 30.2708C13.3291 44.3896 24.9457 53.0184 27.8418 54.9958V30.2708H8.6351Z" fill="#2D3E1F"/>
<path d="M48.7877 28.9465C49.7604 25.6395 50.3455 22.0455 50.3554 18.1812C50.3594 16.5801 50.164 15.0863 49.796 13.6999C46.6789 14.9208 42.0261 14.6518 37.4036 12.6925C33.7696 11.1522 30.8702 8.87081 29.1662 6.46271V28.9465H48.7877Z" fill="#2D3E1F"/>
<g filter="url(#filter1_d_1410_10522)">
<path d="M28.3924 13C29.3709 14.9505 31.5453 16.8893 34.4056 18.1239C37.473 19.4476 40.5604 19.6292 42.6289 18.8043C42.873 19.7407 43.0027 20.7498 43 21.8315C42.9598 37.8819 28.5 47 28.5 47C28.5 47 14.04 37.8811 14 21.8315C13.9974 20.7779 14.1203 19.7936 14.3521 18.8786C16.4167 19.6168 19.4075 19.4063 22.3793 18.1239C25.2394 16.8893 27.4138 14.9505 28.3924 13Z" fill="#595959"/>
<path d="M28.3924 13C29.3709 14.9505 31.5453 16.8893 34.4056 18.1239C37.473 19.4476 40.5604 19.6292 42.6289 18.8043C42.873 19.7407 43.0027 20.7498 43 21.8315C42.9598 37.8819 28.5 47 28.5 47C28.5 47 14.04 37.8811 14 21.8315C13.9974 20.7779 14.1203 19.7936 14.3521 18.8786C16.4167 19.6168 19.4075 19.4063 22.3793 18.1239C25.2394 16.8893 27.4138 14.9505 28.3924 13Z" fill="url(#paint1_linear_1410_10522)"/>
</g>
<g filter="url(#filter2_d_1410_10522)">
<path d="M12 11.66C9.2462 11.9351 6.71654 11.7044 4.66782 11C4.22816 12.6684 3.99509 14.4634 4.00008 16.3848C4.00085 16.6846 4.0045 16.983 4.01096 17.2802H8.057C8.14053 16.2278 8.3146 15.2248 8.57068 14.271C9.58911 14.6147 10.7466 14.8239 12 14.8934V11.66Z" fill="url(#paint2_linear_1410_10522)"/>
</g>
<g filter="url(#filter3_d_1410_10522)">
<path d="M46 11.66C48.7538 11.9351 51.2835 11.7044 53.3322 11C53.7718 12.6684 54.0049 14.4634 53.9999 16.3848C53.9991 16.6846 53.9955 16.983 53.989 17.2802H49.943C49.8595 16.2278 49.6854 15.2248 49.4293 14.271C48.4109 14.6147 47.2534 14.8239 46 14.8934V11.66Z" fill="url(#paint3_linear_1410_10522)"/>
</g>
<g filter="url(#filter4_d_1410_10522)">
<path d="M38.7165 10C33.685 7.74233 29.8719 4.38069 28.1078 1C26.3438 4.38069 22.5307 7.74233 17.4994 10H24.8017C26.2697 8.73904 27.4084 7.37139 28.1375 6C28.8666 7.37139 30.0053 8.73904 31.4734 10H38.7165Z" fill="url(#paint4_linear_1410_10522)"/>
</g>
<g filter="url(#filter5_d_1410_10522)">
<path d="M20.8 52C25.2033 55.9421 28.5972 58 28.5972 58C28.5972 58 31.9913 55.9422 36.3947 52H30.1226C29.1645 52.6625 28.5972 53 28.5972 53C28.5972 53 28.0301 52.6625 27.0719 52H20.8Z" fill="url(#paint5_linear_1410_10522)"/>
</g>
<defs>
<filter id="filter0_d_1410_10522" x="0" y="0" width="57" height="63.6216" filterUnits="userSpaceOnUse" color-interpolation-filters="sRGB">
<feFlood flood-opacity="0" result="BackgroundImageFix"/>
<feColorMatrix in="SourceAlpha" type="matrix" values="0 0 0 0 0 0 0 0 0 0 0 0 0 0 0 0 0 0 127 0" result="hardAlpha"/>
<feOffset dy="2"/>
<feGaussianBlur stdDeviation="2"/>
<feComposite in2="hardAlpha" operator="out"/>
<feColorMatrix type="matrix" values="0 0 0 0 0 0 0 0 0 0 0 0 0 0 0 0 0 0 1 0"/>
<feBlend mode="normal" in2="BackgroundImageFix" result="effect1_dropShadow_1410_10522"/>
<feBlend mode="normal" in="SourceGraphic" in2="effect1_dropShadow_1410_10522" result="shape"/>
</filter>
<filter id="filter1_d_1410_10522" x="13" y="12" width="31" height="36" filterUnits="userSpaceOnUse" color-interpolation-filters="sRGB">
<feFlood flood-opacity="0" result="BackgroundImageFix"/>
<feColorMatrix in="SourceAlpha" type="matrix" values="0 0 0 0 0 0 0 0 0 0 0 0 0 0 0 0 0 0 127 0" result="hardAlpha"/>
<feOffset/>
<feGaussianBlur stdDeviation="0.5"/>
<feComposite in2="hardAlpha" operator="out"/>
<feColorMatrix type="matrix" values="0 0 0 0 0 0 0 0 0 0 0 0 0 0 0 0 0 0 0.8 0"/>
<feBlend mode="normal" in2="BackgroundImageFix" result="effect1_dropShadow_1410_10522"/>
<feBlend mode="normal" in="SourceGraphic" in2="effect1_dropShadow_1410_10522" result="shape"/>
</filter>
<filter id="filter2_d_1410_10522" x="3" y="10" width="10" height="8.28015" filterUnits="userSpaceOnUse" color-interpolation-filters="sRGB">
<feFlood flood-opacity="0" result="BackgroundImageFix"/>
<feColorMatrix in="SourceAlpha" type="matrix" values="0 0 0 0 0 0 0 0 0 0 0 0 0 0 0 0 0 0 127 0" result="hardAlpha"/>
<feOffset/>
<feGaussianBlur stdDeviation="0.5"/>
<feComposite in2="hardAlpha" operator="out"/>
<feColorMatrix type="matrix" values="0 0 0 0 0 0 0 0 0 0 0 0 0 0 0 0 0 0 1 0"/>
<feBlend mode="normal" in2="BackgroundImageFix" result="effect1_dropShadow_1410_10522"/>
<feBlend mode="normal" in="SourceGraphic" in2="effect1_dropShadow_1410_10522" result="shape"/>
</filter>
<filter id="filter3_d_1410_10522" x="45" y="10" width="10" height="8.28015" filterUnits="userSpaceOnUse" color-interpolation-filters="sRGB">
<feFlood flood-opacity="0" result="BackgroundImageFix"/>
<feColorMatrix in="SourceAlpha" type="matrix" values="0 0 0 0 0 0 0 0 0 0 0 0 0 0 0 0 0 0 127 0" result="hardAlpha"/>
<feOffset/>
<feGaussianBlur stdDeviation="0.5"/>
<feComposite in2="hardAlpha" operator="out"/>
<feColorMatrix type="matrix" values="0 0 0 0 0 0 0 0 0 0 0 0 0 0 0 0 0 0 1 0"/>
<feBlend mode="normal" in2="BackgroundImageFix" result="effect1_dropShadow_1410_10522"/>
<feBlend mode="normal" in="SourceGraphic" in2="effect1_dropShadow_1410_10522" result="shape"/>
</filter>
<filter id="filter4_d_1410_10522" x="16.4994" y="0" width="23.2171" height="11" filterUnits="userSpaceOnUse" color-interpolation-filters="sRGB">
<feFlood flood-opacity="0" result="BackgroundImageFix"/>
<feColorMatrix in="SourceAlpha" type="matrix" values="0 0 0 0 0 0 0 0 0 0 0 0 0 0 0 0 0 0 127 0" result="hardAlpha"/>
<feOffset/>
<feGaussianBlur stdDeviation="0.5"/>
<feComposite in2="hardAlpha" operator="out"/>
<feColorMatrix type="matrix" values="0 0 0 0 0 0 0 0 0 0 0 0 0 0 0 0 0 0 1 0"/>
<feBlend mode="normal" in2="BackgroundImageFix" result="effect1_dropShadow_1410_10522"/>
<feBlend mode="normal" in="SourceGraphic" in2="effect1_dropShadow_1410_10522" result="shape"/>
</filter>
<filter id="filter5_d_1410_10522" x="19.8" y="51" width="17.5947" height="8" filterUnits="userSpaceOnUse" color-interpolation-filters="sRGB">
<feFlood flood-opacity="0" result="BackgroundImageFix"/>
<feColorMatrix in="SourceAlpha" type="matrix" values="0 0 0 0 0 0 0 0 0 0 0 0 0 0 0 0 0 0 127 0" result="hardAlpha"/>
<feOffset/>
<feGaussianBlur stdDeviation="0.5"/>
<feComposite in2="hardAlpha" operator="out"/>
<feColorMatrix type="matrix" values="0 0 0 0 0 0 0 0 0 0 0 0 0 0 0 0 0 0 1 0"/>
<feBlend mode="normal" in2="BackgroundImageFix" result="effect1_dropShadow_1410_10522"/>
<feBlend mode="normal" in="SourceGraphic" in2="effect1_dropShadow_1410_10522" result="shape"/>
</filter>
<linearGradient id="paint0_linear_1410_10522" x1="28.4999" y1="-31.2967" x2="28.4999" y2="56.5621" gradientUnits="userSpaceOnUse">
<stop stop-color="#BF953F"/>
<stop offset="0.234375" stop-color="#FCF6BA"/>
<stop offset="0.515625" stop-color="#B38728"/>
<stop offset="0.78125" stop-color="#FBF5B7"/>
<stop offset="1" stop-color="#AA771C"/>
</linearGradient>
<linearGradient id="paint1_linear_1410_10522" x1="27.6471" y1="-60.95" x2="27.6471" y2="76.75" gradientUnits="userSpaceOnUse">
<stop stop-color="#BF953F"/>
<stop offset="0.234375" stop-color="#FCF6BA"/>
<stop offset="0.515625" stop-color="#B38728"/>
<stop offset="0.78125" stop-color="#FBF5B7"/>
<stop offset="1" stop-color="#AA771C"/>
</linearGradient>
<linearGradient id="paint2_linear_1410_10522" x1="7.99998" y1="11" x2="7.99998" y2="17.2803" gradientUnits="userSpaceOnUse">
<stop stop-color="#B8B8B8"/>
<stop offset="0.223958" stop-color="#9E9E9E"/>
<stop offset="0.46875" stop-color="#B8B8B8"/>
<stop offset="0.71875" stop-color="#999999"/>
<stop offset="1" stop-color="#B8B8B8"/>
</linearGradient>
<linearGradient id="paint3_linear_1410_10522" x1="50" y1="11" x2="50" y2="17.2803" gradientUnits="userSpaceOnUse">
<stop stop-color="#B8B8B8"/>
<stop offset="0.223958" stop-color="#9E9E9E"/>
<stop offset="0.46875" stop-color="#B8B8B8"/>
<stop offset="0.71875" stop-color="#999999"/>
<stop offset="1" stop-color="#B8B8B8"/>
</linearGradient>
<linearGradient id="paint4_linear_1410_10522" x1="28.1079" y1="1" x2="28.1079" y2="10" gradientUnits="userSpaceOnUse">
<stop stop-color="#B8B8B8"/>
<stop offset="0.223958" stop-color="#9E9E9E"/>
<stop offset="0.46875" stop-color="#B8B8B8"/>
<stop offset="0.71875" stop-color="#999999"/>
<stop offset="1" stop-color="#B8B8B8"/>
</linearGradient>
<linearGradient id="paint5_linear_1410_10522" x1="28.5974" y1="52" x2="28.5974" y2="58" gradientUnits="userSpaceOnUse">
<stop stop-color="#B8B8B8"/>
<stop offset="0.223958" stop-color="#9E9E9E"/>
<stop offset="0.46875" stop-color="#B8B8B8"/>
<stop offset="0.71875" stop-color="#999999"/>
<stop offset="1" stop-color="#B8B8B8"/>
</linearGradient>
</defs>
</svg>
