<svg width="68" height="68" viewBox="0 0 68 68" fill="none" xmlns="http://www.w3.org/2000/svg">
<g filter="url(#filter0_d_1421_8935)">
<path fill-rule="evenodd" clip-rule="evenodd" d="M16.7701 16.3574L12.1815 11.9743C12.1815 11.9743 8.03002 12.4126 6.50051 11.536C4.97101 10.6594 4.47158 9.56358 4.3155 8.4678C4.15943 7.37202 4.75251 6.05706 5.40801 5.18045C6.50051 3.71944 8.46702 4.30385 8.46702 4.30385C8.46702 4.30385 8.03002 1.67397 9.77803 0.797348C11.526 -0.0792778 12.9827 0.359058 13.4925 0.578193C14.0024 0.797328 15.022 1.45481 15.6775 2.98889C16.3331 4.52297 16.1145 8.24866 16.1145 8.24866L19.8291 11.9743C19.8291 11.9743 21.8891 9.56362 25.0731 8.24866C28.257 6.93371 29.8801 6.93371 32.9391 6.93371C35.9981 6.93371 37.5276 7.15286 41.2421 8.4678C44.9567 9.78274 47.3602 12.851 47.3602 12.851L52.1672 8.24866C52.1672 8.24866 51.5117 4.52302 52.1672 3.20806C52.2875 2.96677 52.3857 2.75499 52.474 2.56461C52.8668 1.71749 53.0633 1.29394 54.1337 0.578188C55.4447 -0.29842 56.7557 -0.0792922 58.0667 0.578188C59.3777 1.23567 59.8147 4.30385 59.8147 4.30385C59.8147 4.30385 62.4367 4.30386 63.5292 6.0571C64.6217 7.81034 63.5292 9.56359 63.0922 10.2211C62.6552 10.8785 61.5627 11.3168 60.0332 11.7552C58.5037 12.1935 55.6632 11.9743 55.6632 11.9743L50.2007 17.6724C50.2007 17.6724 51.2932 21.8363 51.2932 24.4662C51.2932 27.0961 50.6923 29.9452 50.2007 31.2601C50.062 31.6311 49.9146 31.8974 49.7842 32.1329C49.4526 32.732 49.2315 33.1315 49.5452 34.5474C49.7208 35.3402 50.2142 35.7789 50.7415 36.2479C51.526 36.9456 52.3857 37.7101 52.3857 39.8072C52.3857 43.3137 50.8562 42.8754 50.8562 42.8754L55.6632 48.1351C55.6632 48.1351 57.6297 47.6968 60.4702 48.1351C62.9594 48.5192 63.2673 49.5765 63.5994 50.717C63.6463 50.878 63.6937 51.0407 63.7477 51.2033C64.1847 52.5183 63.0922 54.4907 62.2182 55.1481C61.3442 55.8056 59.8147 55.8056 59.8147 55.8056C59.8147 55.8056 59.8147 58.2163 58.0667 59.3121C56.3187 60.4079 54.7892 59.9696 53.6967 59.3121C52.6042 58.6547 52.3857 57.9972 52.1672 56.6822C51.9487 55.3673 52.1672 51.8608 52.1672 51.8608C52.1672 51.8608 45.1752 44.6286 44.5197 44.4095C43.8641 44.1903 42.5532 44.4095 42.5531 47.0393C42.5531 49.6692 41.6791 52.9566 40.3681 53.1757C39.0572 53.3949 39.0571 53.3949 38.8386 51.2033C38.7749 50.5638 38.7669 50.0363 38.7605 49.6098C38.7449 48.5748 38.7383 48.1351 37.9646 48.1351C37.8946 48.1351 37.8308 48.1342 37.7728 48.1334C37.5324 48.13 37.3912 48.128 37.3122 48.1974C37.1996 48.2961 37.2133 48.5397 37.2465 49.1305C37.272 49.5851 37.3091 50.2453 37.3091 51.2033C37.3091 53.637 37.0696 53.5483 36.5019 53.3381C36.3028 53.2644 36.0633 53.1757 35.7796 53.1757C35.65 53.1757 35.5297 53.1819 35.4175 53.1876C34.5835 53.2304 34.1983 53.2501 33.8131 50.5459C33.3761 47.4777 33.1576 48.1351 33.1576 48.1351C33.1576 48.1351 32.5021 47.916 32.2836 51.2033C32.0651 54.4907 31.1911 54.4907 30.7541 53.1757C30.5567 52.5816 30.0024 52.4349 29.5347 52.3111C28.9671 52.1608 28.527 52.0443 29.0061 51.2033C29.8801 49.6692 29.6616 48.3543 28.3506 48.1351C27.3443 47.9669 27.3679 48.4443 27.4332 49.7656C27.453 50.1656 27.4766 50.643 27.4766 51.2033C27.4766 53.2603 27.1584 53.243 26.2506 53.1937C26.0945 53.1852 25.9209 53.1757 25.7286 53.1757C24.4176 53.1757 23.9806 51.8608 24.1991 50.1075C24.4176 48.3543 22.8881 44.8478 22.8881 44.8478L16.1145 51.8608C16.1145 51.8608 16.5515 54.4906 16.1145 56.4631C15.6776 58.4355 14.3665 59.5312 13.4925 59.7504C13.425 59.7673 13.3563 59.7856 13.286 59.8042C12.4459 60.0268 11.3911 60.3064 9.778 59.0929C8.03002 57.778 8.46702 55.8056 8.46702 55.8056C8.46702 55.8056 5.84499 55.3673 4.971 54.4907C4.097 53.614 3.8348 51.8608 4.097 51.2033C4.13971 51.0962 4.1743 50.9775 4.21173 50.8491C4.4041 50.1889 4.67139 49.2716 6.50051 48.3543C8.68552 47.2585 12.1815 48.1351 12.1815 48.1351L16.7701 43.5328C16.7701 43.5328 14.585 43.0945 14.148 40.903C13.711 38.7114 14.148 37.6156 15.2405 36.739C15.4171 36.5973 15.5879 36.4786 15.7484 36.367C16.5813 35.788 17.1364 35.402 16.7701 33.0133C16.3331 30.1643 15.2405 27.3153 15.2405 27.3153C15.2405 27.3153 14.8035 24.2471 15.2405 21.1789C15.6775 18.1107 16.7701 16.3574 16.7701 16.3574ZM24.1237 39.5031C27.3402 40.0239 30.3687 37.8307 30.8879 34.6044C31.4071 31.3782 29.2205 28.3407 26.0039 27.8199C22.7873 27.2991 19.7589 29.4923 19.2397 32.7186C18.7204 35.9448 20.9071 38.9823 24.1237 39.5031ZM46.62 34.6044C46.1008 37.8307 43.0723 40.0239 39.8557 39.5031C36.6391 38.9823 34.4525 35.9448 34.9717 32.7186C35.4909 29.4923 38.5194 27.2991 41.736 27.8199C44.9526 28.3407 47.1392 31.3782 46.62 34.6044ZM30.4251 39.1633C29.9665 39.6233 29.8434 40.3216 30.1169 40.9114L30.7567 42.2907C31.3023 43.4673 33.0606 43.0772 33.0606 41.7796C33.0606 43.1453 34.9279 43.5283 35.4625 42.2723L36.0468 40.8992C36.2962 40.3132 36.1653 39.634 35.7161 39.1835L33.0605 36.52L30.4251 39.1633Z" fill="url(#paint0_linear_1421_8935)"/>
</g>
<defs>
<filter id="filter0_d_1421_8935" x="0" y="0" width="68" height="68" filterUnits="userSpaceOnUse" color-interpolation-filters="sRGB">
<feFlood flood-opacity="0" result="BackgroundImageFix"/>
<feColorMatrix in="SourceAlpha" type="matrix" values="0 0 0 0 0 0 0 0 0 0 0 0 0 0 0 0 0 0 127 0" result="hardAlpha"/>
<feOffset dy="4"/>
<feGaussianBlur stdDeviation="2"/>
<feComposite in2="hardAlpha" operator="out"/>
<feColorMatrix type="matrix" values="0 0 0 0 0 0 0 0 0 0 0 0 0 0 0 0 0 0 1 0"/>
<feBlend mode="normal" in2="BackgroundImageFix" result="effect1_dropShadow_1421_8935"/>
<feBlend mode="normal" in="SourceGraphic" in2="effect1_dropShadow_1421_8935" result="shape"/>
</filter>
<linearGradient id="paint0_linear_1421_8935" x1="34.3529" y1="4.00645e-07" x2="34.3529" y2="60" gradientUnits="userSpaceOnUse">
<stop stop-color="#BF953F"/>
<stop offset="0.234375" stop-color="#FCF6BA"/>
<stop offset="0.515625" stop-color="#B38728"/>
<stop offset="0.78125" stop-color="#FBF5B7"/>
<stop offset="1" stop-color="#AA771C"/>
</linearGradient>
</defs>
</svg>
