<svg width="70" height="68" viewBox="0 0 70 68" fill="none" xmlns="http://www.w3.org/2000/svg">
<g filter="url(#filter0_d_1410_10576)">
<rect x="11" y="8" width="48" height="48" fill="#421212"/>
</g>
<g filter="url(#filter1_d_1410_10576)">
<path fill-rule="evenodd" clip-rule="evenodd" d="M58.3352 11.0005C58.3352 7.01107 11.6647 7.01107 11.6647 11.0005C11.6647 14.9899 11.6647 48.9886 11.6647 52.9989C11.6647 57.0092 58.3352 56.9991 58.3352 52.9989C58.3352 48.9988 58.3352 14.9899 58.3352 11.0005ZM7.21994 7.00065C11.6648 6.99967 11.6646 56.9961 7.21994 56.9988C2.77532 57.0015 67.2249 56.9988 62.78 56.9988C58.3352 56.9988 58.3351 7.00252 62.78 7.00065C67.225 6.99878 2.77504 7.00163 7.21994 7.00065Z" fill="url(#paint0_linear_1410_10576)"/>
</g>
<defs>
<filter id="filter0_d_1410_10576" x="3" y="4" width="64" height="64" filterUnits="userSpaceOnUse" color-interpolation-filters="sRGB">
<feFlood flood-opacity="0" result="BackgroundImageFix"/>
<feColorMatrix in="SourceAlpha" type="matrix" values="0 0 0 0 0 0 0 0 0 0 0 0 0 0 0 0 0 0 127 0" result="hardAlpha"/>
<feOffset dy="4"/>
<feGaussianBlur stdDeviation="4"/>
<feComposite in2="hardAlpha" operator="out"/>
<feColorMatrix type="matrix" values="0 0 0 0 0 0 0 0 0 0 0 0 0 0 0 0 0 0 0.5 0"/>
<feBlend mode="normal" in2="BackgroundImageFix" result="effect1_dropShadow_1410_10576"/>
<feBlend mode="normal" in="SourceGraphic" in2="effect1_dropShadow_1410_10576" result="shape"/>
</filter>
<filter id="filter1_d_1410_10576" x="0" y="0" width="70" height="64" filterUnits="userSpaceOnUse" color-interpolation-filters="sRGB">
<feFlood flood-opacity="0" result="BackgroundImageFix"/>
<feColorMatrix in="SourceAlpha" type="matrix" values="0 0 0 0 0 0 0 0 0 0 0 0 0 0 0 0 0 0 127 0" result="hardAlpha"/>
<feOffset/>
<feGaussianBlur stdDeviation="3.5"/>
<feComposite in2="hardAlpha" operator="out"/>
<feColorMatrix type="matrix" values="0 0 0 0 0 0 0 0 0 0 0 0 0 0 0 0 0 0 1 0"/>
<feBlend mode="normal" in2="BackgroundImageFix" result="effect1_dropShadow_1410_10576"/>
<feBlend mode="normal" in="SourceGraphic" in2="effect1_dropShadow_1410_10576" result="shape"/>
</filter>
<linearGradient id="paint0_linear_1410_10576" x1="34.9998" y1="-25.5086" x2="34.9998" y2="56.9884" gradientUnits="userSpaceOnUse">
<stop stop-color="#BF953F"/>
<stop offset="0.234375" stop-color="#FCF6BA"/>
<stop offset="0.515625" stop-color="#B38728"/>
<stop offset="0.78125" stop-color="#FBF5B7"/>
<stop offset="1" stop-color="#AA771C"/>
</linearGradient>
</defs>
</svg>
