<svg width="31" height="88" viewBox="0 0 31 88" fill="none" xmlns="http://www.w3.org/2000/svg">
<path d="M10.3125 23.4496C4.8659 21.6658 8.13811 21.3218 10.0818 21.9139C12.0254 22.506 20.1298 22.4181 22.2861 22.0768C24.4424 21.7356 28.813 21.6657 22.2861 23.4496C15.7592 25.2335 15.759 25.2335 10.3125 23.4496Z" fill="url(#paint0_linear_1410_9810)"/>
<path d="M14.2994 22.956C14.1876 23.0804 14.0602 22.9324 14.0149 22.6256C13.9696 22.3188 14.0235 21.9693 14.1353 21.8449L15.7546 20.0441C15.8664 19.9198 15.9937 20.0677 16.039 20.3745C16.0843 20.6813 16.0304 21.0309 15.9187 21.1552L14.2994 22.956Z" fill="url(#paint1_linear_1410_9810)"/>
<path d="M14.2996 21.9562C14.1878 22.0805 14.0605 21.9326 14.0152 21.6258C13.9699 21.319 14.0238 20.9695 14.1356 20.8451L15.7548 19.0443C15.8666 18.92 15.994 19.0679 16.0393 19.3747C16.0846 19.6815 16.0307 20.031 15.9189 20.1554L14.2996 21.9562Z" fill="url(#paint2_linear_1410_9810)"/>
<path d="M14.2991 20.9557C14.1873 21.08 14.06 20.9321 14.0147 20.6253C13.9694 20.3185 14.0233 19.969 14.1351 19.8446L15.7543 18.0438C15.8661 17.9195 15.9935 18.0674 16.0388 18.3742C16.0841 18.681 16.0302 19.0305 15.9184 19.1549L14.2991 20.9557Z" fill="url(#paint3_linear_1410_9810)"/>
<path d="M14.2993 19.956C14.1875 20.0803 14.0601 19.9323 14.0148 19.6255C13.9695 19.3187 14.0234 18.9692 14.1352 18.8449L15.7545 17.044C15.8663 16.9197 15.9936 17.0677 16.0389 17.3745C16.0842 17.6813 16.0303 18.0308 15.9185 18.1551L14.2993 19.956Z" fill="url(#paint4_linear_1410_9810)"/>
<path d="M14.2995 18.9562C14.1877 19.0805 14.0603 18.9325 14.015 18.6257C13.9697 18.3189 14.0236 17.9694 14.1354 17.8451L15.7547 16.0442C15.8665 15.9199 15.9938 16.0678 16.0391 16.3746C16.0844 16.6815 16.0305 17.031 15.9187 17.1553L14.2995 18.9562Z" fill="url(#paint5_linear_1410_9810)"/>
<path d="M14.2997 17.9563C14.1879 18.0807 14.0605 17.9327 14.0152 17.6259C13.97 17.3191 14.0239 16.9696 14.1356 16.8453L15.7549 15.0444C15.8667 14.9201 15.9941 15.068 16.0394 15.3748C16.0846 15.6816 16.0307 16.0312 15.919 16.1555L14.2997 17.9563Z" fill="url(#paint6_linear_1410_9810)"/>
<path d="M14.2992 16.9558C14.1874 17.0802 14.0601 16.9322 14.0148 16.6254C13.9695 16.3186 14.0234 15.9691 14.1352 15.8448L15.7544 14.0439C15.8662 13.9196 15.9936 14.0675 16.0389 14.3743C16.0842 14.6812 16.0303 15.0307 15.9185 15.155L14.2992 16.9558Z" fill="url(#paint7_linear_1410_9810)"/>
<path d="M14.2993 15.956C14.1876 16.0804 14.0602 15.9324 14.0149 15.6256C13.9696 15.3188 14.0235 14.9693 14.1353 14.8449L15.7546 13.0441C15.8664 12.9198 15.9937 13.0677 16.039 13.3745C16.0843 13.6813 16.0304 14.0309 15.9186 14.1552L14.2993 15.956Z" fill="url(#paint8_linear_1410_9810)"/>
<path d="M14.2996 14.9562C14.1878 15.0805 14.0604 14.9326 14.0151 14.6258C13.9698 14.319 14.0237 13.9695 14.1355 13.8451L15.7548 12.0443C15.8666 11.92 15.9939 12.0679 16.0392 12.3747C16.0845 12.6815 16.0306 13.031 15.9188 13.1554L14.2996 14.9562Z" fill="url(#paint9_linear_1410_9810)"/>
<path d="M14.2991 13.9557C14.1873 14.08 14.0599 13.9321 14.0146 13.6253C13.9693 13.3185 14.0232 12.969 14.135 12.8446L15.7543 11.0438C15.8661 10.9195 15.9934 11.0674 16.0387 11.3742C16.084 11.681 16.0301 12.0305 15.9183 12.1549L14.2991 13.9557Z" fill="url(#paint10_linear_1410_9810)"/>
<path d="M14.2993 12.9559C14.1875 13.0802 14.0602 12.9323 14.0149 12.6255C13.9696 12.3187 14.0235 11.9691 14.1352 11.8448L15.7545 10.044C15.8663 9.91965 15.9937 10.0676 16.039 10.3744C16.0843 10.6812 16.0304 11.0307 15.9186 11.1551L14.2993 12.9559Z" fill="url(#paint11_linear_1410_9810)"/>
<path d="M14.2995 11.9561C14.1877 12.0804 14.0604 11.9325 14.0151 11.6257C13.9698 11.3188 14.0237 10.9693 14.1355 10.845L15.7547 9.04416C15.8665 8.91983 15.9939 9.06777 16.0392 9.37459C16.0845 9.68141 16.0306 10.0309 15.9188 10.1552L14.2995 11.9561Z" fill="url(#paint12_linear_1410_9810)"/>
<path d="M14.2996 10.9563C14.1879 11.0807 14.0605 10.9327 14.0152 10.6259C13.9699 10.3191 14.0238 9.96958 14.1356 9.84525L15.7549 8.0444C15.8667 7.92008 15.994 8.06802 16.0393 8.37483C16.0846 8.68165 16.0307 9.03116 15.9189 9.15548L14.2996 10.9563Z" fill="url(#paint13_linear_1410_9810)"/>
<path d="M14.2992 9.95584C14.1874 10.0802 14.0601 9.93223 14.0148 9.62541C13.9695 9.31859 14.0234 8.96909 14.1352 8.84476L15.7544 7.04391C15.8662 6.91959 15.9936 7.06753 16.0389 7.37434C16.0842 7.68116 16.0303 8.03067 15.9185 8.15499L14.2992 9.95584Z" fill="url(#paint14_linear_1410_9810)"/>
<path d="M14.2994 8.95603C14.1876 9.08035 14.0602 8.93241 14.0149 8.62559C13.9696 8.31878 14.0235 7.96927 14.1353 7.84495L15.7546 6.04409C15.8664 5.91977 15.9937 6.06771 16.039 6.37453C16.0843 6.68134 16.0304 7.03085 15.9187 7.15517L14.2994 8.95603Z" fill="url(#paint15_linear_1410_9810)"/>
<path d="M14.2996 7.95621C14.1878 8.08053 14.0605 7.93259 14.0152 7.62578C13.9699 7.31896 14.0238 6.96945 14.1356 6.84513L15.7548 5.04428C15.8666 4.91995 15.994 5.06789 16.0393 5.37471C16.0846 5.68153 16.0307 6.03103 15.9189 6.15536L14.2996 7.95621Z" fill="url(#paint16_linear_1410_9810)"/>
<path d="M14.2991 6.95578C14.1873 7.08011 14.0599 6.93217 14.0146 6.62535C13.9693 6.31853 14.0232 5.96903 14.135 5.8447L15.7543 4.04385C15.8661 3.91953 15.9934 4.06747 16.0387 4.37428C16.084 4.6811 16.0301 5.03061 15.9183 5.15493L14.2991 6.95578Z" fill="url(#paint17_linear_1410_9810)"/>
<path d="M14.2993 5.95597C14.1875 6.08029 14.0602 5.93235 14.0149 5.62553C13.9696 5.31872 14.0235 4.96921 14.1352 4.84489L15.7545 3.04403C15.8663 2.91971 15.9937 3.06765 16.039 3.37447C16.0843 3.68128 16.0304 4.03079 15.9186 4.15511L14.2993 5.95597Z" fill="url(#paint18_linear_1410_9810)"/>
<g filter="url(#filter0_d_1410_9810)">
<path d="M3.16287 22C0.633796 22 2.64882 27.5 5.21906 24C5.81744 23.1853 7.1126 22.5059 8.77924 21.9999C9.74709 22.2936 11.8151 22.8306 12.9707 23C13.3231 27.7692 14.7859 55.1257 12.2177 57.7534C9.4065 60.6301 15.0269 82 15.0269 82C15.0269 82 20.6513 61.0411 17.8401 57.7534C15.3241 54.8112 16.6024 28.4996 17.007 23.0035C19.259 22.951 21.4206 22.6326 23.0742 21.9998C24.3272 22.4791 25.289 23.1388 25.7809 24C28.3512 28.5006 30.3662 21.9999 27.8371 22C26.5038 22 26.7197 20.1932 26.8442 19.1444C26.9566 18.204 26.9958 17.8728 25.7809 20C25.289 20.8608 24.3272 21.5205 23.0742 21.9998C19.3042 20.557 12.9027 20.748 8.77924 21.9999C7.1126 21.494 5.81744 20.8147 5.21906 20C3.99317 18.3312 4.04438 18.7084 4.15883 19.5599C4.28433 20.4944 4.48614 21.9999 3.16287 22Z" fill="url(#paint19_linear_1410_9810)"/>
</g>
<path d="M15.1208 5C13.8915 5 12.895 4.37817 12.895 3.61111C12.895 3.61111 15.566 2.77778 12.895 1.38889C10.2239 0 13.8915 0 15.1208 0C16.3501 0 19.5729 0 17.3467 1.38889C15.1205 2.77778 17.3467 3.61111 17.3467 3.61111C17.3467 4.37817 16.3501 5 15.1208 5Z" fill="url(#paint20_linear_1410_9810)"/>
<g filter="url(#filter1_d_1410_9810)">
<path d="M9.70269 22.866C4.25613 21.0822 7.52834 20.7381 9.47198 21.3303C11.4156 21.9224 19.52 21.8344 21.6763 21.4932C23.8326 21.1519 28.2032 21.0821 21.6763 22.866C15.1495 24.6499 15.1493 24.6498 9.70269 22.866Z" fill="url(#paint21_linear_1410_9810)"/>
</g>
<defs>
<filter id="filter0_d_1410_9810" x="0" y="18.4133" width="31" height="69.5867" filterUnits="userSpaceOnUse" color-interpolation-filters="sRGB">
<feFlood flood-opacity="0" result="BackgroundImageFix"/>
<feColorMatrix in="SourceAlpha" type="matrix" values="0 0 0 0 0 0 0 0 0 0 0 0 0 0 0 0 0 0 127 0" result="hardAlpha"/>
<feOffset dy="4"/>
<feGaussianBlur stdDeviation="1"/>
<feComposite in2="hardAlpha" operator="out"/>
<feColorMatrix type="matrix" values="0 0 0 0 0 0 0 0 0 0 0 0 0 0 0 0 0 0 1 0"/>
<feBlend mode="normal" in2="BackgroundImageFix" result="effect1_dropShadow_1410_9810"/>
<feBlend mode="normal" in="SourceGraphic" in2="effect1_dropShadow_1410_9810" result="shape"/>
</filter>
<filter id="filter1_d_1410_9810" x="3.70779" y="19.0635" width="24.4103" height="9.14038" filterUnits="userSpaceOnUse" color-interpolation-filters="sRGB">
<feFlood flood-opacity="0" result="BackgroundImageFix"/>
<feColorMatrix in="SourceAlpha" type="matrix" values="0 0 0 0 0 0 0 0 0 0 0 0 0 0 0 0 0 0 127 0" result="hardAlpha"/>
<feOffset dy="1"/>
<feGaussianBlur stdDeviation="1.5"/>
<feComposite in2="hardAlpha" operator="out"/>
<feColorMatrix type="matrix" values="0 0 0 0 0 0 0 0 0 0 0 0 0 0 0 0 0 0 0.3 0"/>
<feBlend mode="normal" in2="BackgroundImageFix" result="effect1_dropShadow_1410_9810"/>
<feBlend mode="normal" in="SourceGraphic" in2="effect1_dropShadow_1410_9810" result="shape"/>
</filter>
<linearGradient id="paint0_linear_1410_9810" x1="2.39898" y1="23.237" x2="22.1548" y2="23.237" gradientUnits="userSpaceOnUse">
<stop stop-color="#BF953F"/>
<stop offset="0.234375" stop-color="#FCF6BA"/>
<stop offset="0.515625" stop-color="#B38728"/>
<stop offset="0.78125" stop-color="#FBF5B7"/>
<stop offset="1" stop-color="#AA771C"/>
</linearGradient>
<linearGradient id="paint1_linear_1410_9810" x1="15.2453" y1="22.0995" x2="14.2502" y2="21.0118" gradientUnits="userSpaceOnUse">
<stop stop-color="#6F5219"/>
<stop offset="1" stop-color="#302200"/>
</linearGradient>
<linearGradient id="paint2_linear_1410_9810" x1="15.2455" y1="21.0997" x2="14.2504" y2="20.012" gradientUnits="userSpaceOnUse">
<stop stop-color="#6F5219"/>
<stop offset="1" stop-color="#302200"/>
</linearGradient>
<linearGradient id="paint3_linear_1410_9810" x1="15.245" y1="20.0992" x2="14.2499" y2="19.0115" gradientUnits="userSpaceOnUse">
<stop stop-color="#6F5219"/>
<stop offset="1" stop-color="#302200"/>
</linearGradient>
<linearGradient id="paint4_linear_1410_9810" x1="15.2452" y1="19.0994" x2="14.2501" y2="18.0117" gradientUnits="userSpaceOnUse">
<stop stop-color="#6F5219"/>
<stop offset="1" stop-color="#302200"/>
</linearGradient>
<linearGradient id="paint5_linear_1410_9810" x1="15.2454" y1="18.0996" x2="14.2503" y2="17.0119" gradientUnits="userSpaceOnUse">
<stop stop-color="#6F5219"/>
<stop offset="1" stop-color="#302200"/>
</linearGradient>
<linearGradient id="paint6_linear_1410_9810" x1="15.2456" y1="17.0998" x2="14.2505" y2="16.0121" gradientUnits="userSpaceOnUse">
<stop stop-color="#6F5219"/>
<stop offset="1" stop-color="#302200"/>
</linearGradient>
<linearGradient id="paint7_linear_1410_9810" x1="15.2451" y1="16.0993" x2="14.25" y2="15.0116" gradientUnits="userSpaceOnUse">
<stop stop-color="#6F5219"/>
<stop offset="1" stop-color="#302200"/>
</linearGradient>
<linearGradient id="paint8_linear_1410_9810" x1="15.2453" y1="15.0995" x2="14.2502" y2="14.0118" gradientUnits="userSpaceOnUse">
<stop stop-color="#6F5219"/>
<stop offset="1" stop-color="#302200"/>
</linearGradient>
<linearGradient id="paint9_linear_1410_9810" x1="15.2455" y1="14.0997" x2="14.2504" y2="13.012" gradientUnits="userSpaceOnUse">
<stop stop-color="#6F5219"/>
<stop offset="1" stop-color="#302200"/>
</linearGradient>
<linearGradient id="paint10_linear_1410_9810" x1="15.245" y1="13.0992" x2="14.2499" y2="12.0115" gradientUnits="userSpaceOnUse">
<stop stop-color="#6F5219"/>
<stop offset="1" stop-color="#302200"/>
</linearGradient>
<linearGradient id="paint11_linear_1410_9810" x1="15.2452" y1="12.0994" x2="14.2501" y2="11.0117" gradientUnits="userSpaceOnUse">
<stop stop-color="#6F5219"/>
<stop offset="1" stop-color="#302200"/>
</linearGradient>
<linearGradient id="paint12_linear_1410_9810" x1="15.2454" y1="11.0995" x2="14.2503" y2="10.0119" gradientUnits="userSpaceOnUse">
<stop stop-color="#6F5219"/>
<stop offset="1" stop-color="#302200"/>
</linearGradient>
<linearGradient id="paint13_linear_1410_9810" x1="15.2456" y1="10.0998" x2="14.2505" y2="9.01211" gradientUnits="userSpaceOnUse">
<stop stop-color="#6F5219"/>
<stop offset="1" stop-color="#302200"/>
</linearGradient>
<linearGradient id="paint14_linear_1410_9810" x1="15.2451" y1="9.09929" x2="14.25" y2="8.01162" gradientUnits="userSpaceOnUse">
<stop stop-color="#6F5219"/>
<stop offset="1" stop-color="#302200"/>
</linearGradient>
<linearGradient id="paint15_linear_1410_9810" x1="15.2453" y1="8.09948" x2="14.2502" y2="7.0118" gradientUnits="userSpaceOnUse">
<stop stop-color="#6F5219"/>
<stop offset="1" stop-color="#302200"/>
</linearGradient>
<linearGradient id="paint16_linear_1410_9810" x1="15.2455" y1="7.09966" x2="14.2504" y2="6.01199" gradientUnits="userSpaceOnUse">
<stop stop-color="#6F5219"/>
<stop offset="1" stop-color="#302200"/>
</linearGradient>
<linearGradient id="paint17_linear_1410_9810" x1="15.245" y1="6.09923" x2="14.2499" y2="5.01156" gradientUnits="userSpaceOnUse">
<stop stop-color="#6F5219"/>
<stop offset="1" stop-color="#302200"/>
</linearGradient>
<linearGradient id="paint18_linear_1410_9810" x1="15.2452" y1="5.09941" x2="14.2501" y2="4.01174" gradientUnits="userSpaceOnUse">
<stop stop-color="#6F5219"/>
<stop offset="1" stop-color="#302200"/>
</linearGradient>
<linearGradient id="paint19_linear_1410_9810" x1="11.4285" y1="38.5" x2="17.5971" y2="38.5" gradientUnits="userSpaceOnUse">
<stop stop-color="#E7E7E7"/>
<stop offset="0.234375" stop-color="#D2D2D2"/>
<stop offset="0.5625" stop-color="#A4A4A4"/>
<stop offset="0.78125" stop-color="#CDCDCD"/>
<stop offset="1" stop-color="#EAEAEA"/>
</linearGradient>
<linearGradient id="paint20_linear_1410_9810" x1="11.9502" y1="1.65929" x2="17.7659" y2="1.67757" gradientUnits="userSpaceOnUse">
<stop stop-color="#E7E7E7"/>
<stop offset="0.234375" stop-color="#D2D2D2"/>
<stop offset="0.5625" stop-color="#A4A4A4"/>
<stop offset="0.78125" stop-color="#CDCDCD"/>
<stop offset="1" stop-color="#EAEAEA"/>
</linearGradient>
<linearGradient id="paint21_linear_1410_9810" x1="1.78921" y1="22.6534" x2="21.545" y2="22.6534" gradientUnits="userSpaceOnUse">
<stop stop-color="#BF953F"/>
<stop offset="0.234375" stop-color="#FCF6BA"/>
<stop offset="0.515625" stop-color="#B38728"/>
<stop offset="0.78125" stop-color="#FBF5B7"/>
<stop offset="1" stop-color="#AA771C"/>
</linearGradient>
</defs>
</svg>
