<svg width="29" height="87" viewBox="0 0 29 87" fill="none" xmlns="http://www.w3.org/2000/svg">
<g filter="url(#filter0_d_1410_9810)">
<path d="M9.31246 23.4496C3.8659 21.6658 7.13811 21.3218 9.08175 21.9139C11.0254 22.506 19.1298 22.4181 21.2861 22.0768C23.4424 21.7356 27.813 21.6657 21.2861 23.4496C14.7592 25.2335 14.759 25.2335 9.31246 23.4496Z" fill="url(#paint0_linear_1410_9810)"/>
<path d="M13.2994 22.956C13.1876 23.0804 13.0602 22.9324 13.0149 22.6256C12.9696 22.3188 13.0235 21.9693 13.1353 21.8449L14.7546 20.0441C14.8664 19.9198 14.9937 20.0677 15.039 20.3745C15.0843 20.6813 15.0304 21.0309 14.9187 21.1552L13.2994 22.956Z" fill="url(#paint1_linear_1410_9810)"/>
<path d="M13.2996 21.9562C13.1878 22.0805 13.0605 21.9326 13.0152 21.6258C12.9699 21.319 13.0238 20.9695 13.1356 20.8451L14.7548 19.0443C14.8666 18.92 14.994 19.0679 15.0393 19.3747C15.0846 19.6815 15.0307 20.031 14.9189 20.1554L13.2996 21.9562Z" fill="url(#paint2_linear_1410_9810)"/>
<path d="M13.2991 20.9557C13.1873 21.08 13.06 20.9321 13.0147 20.6253C12.9694 20.3185 13.0233 19.969 13.1351 19.8446L14.7543 18.0438C14.8661 17.9195 14.9935 18.0674 15.0388 18.3742C15.0841 18.681 15.0302 19.0305 14.9184 19.1549L13.2991 20.9557Z" fill="url(#paint3_linear_1410_9810)"/>
<path d="M13.2993 19.956C13.1875 20.0803 13.0601 19.9323 13.0148 19.6255C12.9695 19.3187 13.0234 18.9692 13.1352 18.8449L14.7545 17.044C14.8663 16.9197 14.9936 17.0677 15.0389 17.3745C15.0842 17.6813 15.0303 18.0308 14.9185 18.1551L13.2993 19.956Z" fill="url(#paint4_linear_1410_9810)"/>
<path d="M13.2995 18.9562C13.1877 19.0805 13.0603 18.9325 13.015 18.6257C12.9697 18.3189 13.0236 17.9694 13.1354 17.8451L14.7547 16.0442C14.8665 15.9199 14.9938 16.0678 15.0391 16.3746C15.0844 16.6815 15.0305 17.031 14.9187 17.1553L13.2995 18.9562Z" fill="url(#paint5_linear_1410_9810)"/>
<path d="M13.2997 17.9563C13.1879 18.0807 13.0605 17.9327 13.0152 17.6259C12.97 17.3191 13.0239 16.9696 13.1356 16.8453L14.7549 15.0444C14.8667 14.9201 14.9941 15.068 15.0394 15.3748C15.0846 15.6816 15.0307 16.0312 14.919 16.1555L13.2997 17.9563Z" fill="url(#paint6_linear_1410_9810)"/>
<path d="M13.2992 16.9558C13.1874 17.0802 13.0601 16.9322 13.0148 16.6254C12.9695 16.3186 13.0234 15.9691 13.1352 15.8448L14.7544 14.0439C14.8662 13.9196 14.9936 14.0675 15.0389 14.3743C15.0842 14.6812 15.0303 15.0307 14.9185 15.155L13.2992 16.9558Z" fill="url(#paint7_linear_1410_9810)"/>
<path d="M13.2993 15.956C13.1876 16.0804 13.0602 15.9324 13.0149 15.6256C12.9696 15.3188 13.0235 14.9693 13.1353 14.8449L14.7546 13.0441C14.8664 12.9198 14.9937 13.0677 15.039 13.3745C15.0843 13.6813 15.0304 14.0309 14.9186 14.1552L13.2993 15.956Z" fill="url(#paint8_linear_1410_9810)"/>
<path d="M13.2996 14.9562C13.1878 15.0805 13.0604 14.9326 13.0151 14.6258C12.9698 14.319 13.0237 13.9695 13.1355 13.8451L14.7548 12.0443C14.8666 11.92 14.9939 12.0679 15.0392 12.3747C15.0845 12.6815 15.0306 13.031 14.9188 13.1554L13.2996 14.9562Z" fill="url(#paint9_linear_1410_9810)"/>
<path d="M13.2991 13.9557C13.1873 14.08 13.0599 13.9321 13.0146 13.6253C12.9693 13.3185 13.0232 12.969 13.135 12.8446L14.7543 11.0438C14.8661 10.9195 14.9934 11.0674 15.0387 11.3742C15.084 11.681 15.0301 12.0305 14.9183 12.1549L13.2991 13.9557Z" fill="url(#paint10_linear_1410_9810)"/>
<path d="M13.2993 12.9559C13.1875 13.0802 13.0602 12.9323 13.0149 12.6255C12.9696 12.3187 13.0235 11.9691 13.1352 11.8448L14.7545 10.044C14.8663 9.91965 14.9937 10.0676 15.039 10.3744C15.0843 10.6812 15.0304 11.0307 14.9186 11.1551L13.2993 12.9559Z" fill="url(#paint11_linear_1410_9810)"/>
<path d="M13.2995 11.9561C13.1877 12.0804 13.0604 11.9325 13.0151 11.6257C12.9698 11.3188 13.0237 10.9693 13.1355 10.845L14.7547 9.04416C14.8665 8.91983 14.9939 9.06777 15.0392 9.37459C15.0845 9.68141 15.0306 10.0309 14.9188 10.1552L13.2995 11.9561Z" fill="url(#paint12_linear_1410_9810)"/>
<path d="M13.2996 10.9563C13.1879 11.0807 13.0605 10.9327 13.0152 10.6259C12.9699 10.3191 13.0238 9.96958 13.1356 9.84525L14.7549 8.0444C14.8667 7.92008 14.994 8.06802 15.0393 8.37483C15.0846 8.68165 15.0307 9.03116 14.9189 9.15548L13.2996 10.9563Z" fill="url(#paint13_linear_1410_9810)"/>
<path d="M13.2992 9.95584C13.1874 10.0802 13.0601 9.93223 13.0148 9.62541C12.9695 9.31859 13.0234 8.96909 13.1352 8.84476L14.7544 7.04391C14.8662 6.91959 14.9936 7.06753 15.0389 7.37434C15.0842 7.68116 15.0303 8.03067 14.9185 8.15499L13.2992 9.95584Z" fill="url(#paint14_linear_1410_9810)"/>
<path d="M13.2994 8.95603C13.1876 9.08035 13.0602 8.93241 13.0149 8.62559C12.9696 8.31878 13.0235 7.96927 13.1353 7.84495L14.7546 6.04409C14.8664 5.91977 14.9937 6.06771 15.039 6.37453C15.0843 6.68134 15.0304 7.03085 14.9187 7.15517L13.2994 8.95603Z" fill="url(#paint15_linear_1410_9810)"/>
<path d="M13.2996 7.95621C13.1878 8.08053 13.0605 7.93259 13.0152 7.62578C12.9699 7.31896 13.0238 6.96945 13.1356 6.84513L14.7548 5.04428C14.8666 4.91995 14.994 5.06789 15.0393 5.37471C15.0846 5.68153 15.0307 6.03103 14.9189 6.15536L13.2996 7.95621Z" fill="url(#paint16_linear_1410_9810)"/>
<path d="M13.2991 6.95578C13.1873 7.08011 13.0599 6.93217 13.0146 6.62535C12.9693 6.31853 13.0232 5.96903 13.135 5.8447L14.7543 4.04385C14.8661 3.91953 14.9934 4.06747 15.0387 4.37428C15.084 4.6811 15.0301 5.03061 14.9183 5.15493L13.2991 6.95578Z" fill="url(#paint17_linear_1410_9810)"/>
<path d="M13.2993 5.95597C13.1875 6.08029 13.0602 5.93235 13.0149 5.62553C12.9696 5.31872 13.0235 4.96921 13.1352 4.84489L14.7545 3.04403C14.8663 2.91971 14.9937 3.06765 15.039 3.37447C15.0843 3.68128 15.0304 4.03079 14.9186 4.15511L13.2993 5.95597Z" fill="url(#paint18_linear_1410_9810)"/>
<path d="M2.16287 22C-0.366204 22 1.64882 27.5 4.21906 24C4.81744 23.1853 6.1126 22.5059 7.77924 21.9999C8.74709 22.2936 10.8151 22.8306 11.9707 23C12.3231 27.7692 13.7859 55.1257 11.2177 57.7534C8.4065 60.6301 14.0269 82 14.0269 82C14.0269 82 19.6513 61.0411 16.8401 57.7534C14.3241 54.8112 15.6024 28.4996 16.007 23.0035C18.259 22.951 20.4206 22.6326 22.0742 21.9998C23.3272 22.4791 24.289 23.1388 24.7809 24C27.3512 28.5006 29.3662 21.9999 26.8371 22C25.5038 22 25.7197 20.1932 25.8442 19.1444C25.9566 18.204 25.9958 17.8728 24.7809 20C24.289 20.8608 23.3272 21.5205 22.0742 21.9998C18.3042 20.557 11.9027 20.748 7.77924 21.9999C6.1126 21.494 4.81744 20.8147 4.21906 20C2.99317 18.3312 3.04438 18.7084 3.15883 19.5599C3.28433 20.4944 3.48614 21.9999 2.16287 22Z" fill="url(#paint19_linear_1410_9810)"/>
<path d="M14.1208 5C12.8915 5 11.895 4.37817 11.895 3.61111C11.895 3.61111 14.566 2.77778 11.895 1.38889C9.22395 -1.19209e-07 12.8915 0 14.1208 0C15.3501 0 18.5729 -1.19209e-07 16.3467 1.38889C14.1205 2.77778 16.3467 3.61111 16.3467 3.61111C16.3467 4.37817 15.3501 5 14.1208 5Z" fill="url(#paint20_linear_1410_9810)"/>
<g filter="url(#filter1_d_1410_9810)">
<path d="M8.70269 22.866C3.25613 21.0822 6.52834 20.7381 8.47198 21.3303C10.4156 21.9224 18.52 21.8344 20.6763 21.4932C22.8326 21.1519 27.2032 21.0821 20.6763 22.866C14.1495 24.6499 14.1493 24.6498 8.70269 22.866Z" fill="url(#paint21_linear_1410_9810)"/>
</g>
</g>
<defs>
<filter id="filter0_d_1410_9810" x="0" y="0" width="29" height="87" filterUnits="userSpaceOnUse" color-interpolation-filters="sRGB">
<feFlood flood-opacity="0" result="BackgroundImageFix"/>
<feColorMatrix in="SourceAlpha" type="matrix" values="0 0 0 0 0 0 0 0 0 0 0 0 0 0 0 0 0 0 127 0" result="hardAlpha"/>
<feOffset dy="4"/>
<feGaussianBlur stdDeviation="0.5"/>
<feComposite in2="hardAlpha" operator="out"/>
<feColorMatrix type="matrix" values="0 0 0 0 0 0 0 0 0 0 0 0 0 0 0 0 0 0 1 0"/>
<feBlend mode="normal" in2="BackgroundImageFix" result="effect1_dropShadow_1410_9810"/>
<feBlend mode="normal" in="SourceGraphic" in2="effect1_dropShadow_1410_9810" result="shape"/>
</filter>
<filter id="filter1_d_1410_9810" x="2.70779" y="19.0635" width="24.4103" height="9.14038" filterUnits="userSpaceOnUse" color-interpolation-filters="sRGB">
<feFlood flood-opacity="0" result="BackgroundImageFix"/>
<feColorMatrix in="SourceAlpha" type="matrix" values="0 0 0 0 0 0 0 0 0 0 0 0 0 0 0 0 0 0 127 0" result="hardAlpha"/>
<feOffset dy="1"/>
<feGaussianBlur stdDeviation="1.5"/>
<feComposite in2="hardAlpha" operator="out"/>
<feColorMatrix type="matrix" values="0 0 0 0 0 0 0 0 0 0 0 0 0 0 0 0 0 0 0.3 0"/>
<feBlend mode="normal" in2="BackgroundImageFix" result="effect1_dropShadow_1410_9810"/>
<feBlend mode="normal" in="SourceGraphic" in2="effect1_dropShadow_1410_9810" result="shape"/>
</filter>
<linearGradient id="paint0_linear_1410_9810" x1="1.39898" y1="23.237" x2="21.1548" y2="23.237" gradientUnits="userSpaceOnUse">
<stop stop-color="#BF953F"/>
<stop offset="0.234375" stop-color="#FCF6BA"/>
<stop offset="0.515625" stop-color="#B38728"/>
<stop offset="0.78125" stop-color="#FBF5B7"/>
<stop offset="1" stop-color="#AA771C"/>
</linearGradient>
<linearGradient id="paint1_linear_1410_9810" x1="14.2453" y1="22.0995" x2="13.2502" y2="21.0118" gradientUnits="userSpaceOnUse">
<stop stop-color="#6F5219"/>
<stop offset="1" stop-color="#302200"/>
</linearGradient>
<linearGradient id="paint2_linear_1410_9810" x1="14.2455" y1="21.0997" x2="13.2504" y2="20.012" gradientUnits="userSpaceOnUse">
<stop stop-color="#6F5219"/>
<stop offset="1" stop-color="#302200"/>
</linearGradient>
<linearGradient id="paint3_linear_1410_9810" x1="14.245" y1="20.0992" x2="13.2499" y2="19.0115" gradientUnits="userSpaceOnUse">
<stop stop-color="#6F5219"/>
<stop offset="1" stop-color="#302200"/>
</linearGradient>
<linearGradient id="paint4_linear_1410_9810" x1="14.2452" y1="19.0994" x2="13.2501" y2="18.0117" gradientUnits="userSpaceOnUse">
<stop stop-color="#6F5219"/>
<stop offset="1" stop-color="#302200"/>
</linearGradient>
<linearGradient id="paint5_linear_1410_9810" x1="14.2454" y1="18.0996" x2="13.2503" y2="17.0119" gradientUnits="userSpaceOnUse">
<stop stop-color="#6F5219"/>
<stop offset="1" stop-color="#302200"/>
</linearGradient>
<linearGradient id="paint6_linear_1410_9810" x1="14.2456" y1="17.0998" x2="13.2505" y2="16.0121" gradientUnits="userSpaceOnUse">
<stop stop-color="#6F5219"/>
<stop offset="1" stop-color="#302200"/>
</linearGradient>
<linearGradient id="paint7_linear_1410_9810" x1="14.2451" y1="16.0993" x2="13.25" y2="15.0116" gradientUnits="userSpaceOnUse">
<stop stop-color="#6F5219"/>
<stop offset="1" stop-color="#302200"/>
</linearGradient>
<linearGradient id="paint8_linear_1410_9810" x1="14.2453" y1="15.0995" x2="13.2502" y2="14.0118" gradientUnits="userSpaceOnUse">
<stop stop-color="#6F5219"/>
<stop offset="1" stop-color="#302200"/>
</linearGradient>
<linearGradient id="paint9_linear_1410_9810" x1="14.2455" y1="14.0997" x2="13.2504" y2="13.012" gradientUnits="userSpaceOnUse">
<stop stop-color="#6F5219"/>
<stop offset="1" stop-color="#302200"/>
</linearGradient>
<linearGradient id="paint10_linear_1410_9810" x1="14.245" y1="13.0992" x2="13.2499" y2="12.0115" gradientUnits="userSpaceOnUse">
<stop stop-color="#6F5219"/>
<stop offset="1" stop-color="#302200"/>
</linearGradient>
<linearGradient id="paint11_linear_1410_9810" x1="14.2452" y1="12.0994" x2="13.2501" y2="11.0117" gradientUnits="userSpaceOnUse">
<stop stop-color="#6F5219"/>
<stop offset="1" stop-color="#302200"/>
</linearGradient>
<linearGradient id="paint12_linear_1410_9810" x1="14.2454" y1="11.0995" x2="13.2503" y2="10.0119" gradientUnits="userSpaceOnUse">
<stop stop-color="#6F5219"/>
<stop offset="1" stop-color="#302200"/>
</linearGradient>
<linearGradient id="paint13_linear_1410_9810" x1="14.2456" y1="10.0998" x2="13.2505" y2="9.01211" gradientUnits="userSpaceOnUse">
<stop stop-color="#6F5219"/>
<stop offset="1" stop-color="#302200"/>
</linearGradient>
<linearGradient id="paint14_linear_1410_9810" x1="14.2451" y1="9.09929" x2="13.25" y2="8.01162" gradientUnits="userSpaceOnUse">
<stop stop-color="#6F5219"/>
<stop offset="1" stop-color="#302200"/>
</linearGradient>
<linearGradient id="paint15_linear_1410_9810" x1="14.2453" y1="8.09948" x2="13.2502" y2="7.0118" gradientUnits="userSpaceOnUse">
<stop stop-color="#6F5219"/>
<stop offset="1" stop-color="#302200"/>
</linearGradient>
<linearGradient id="paint16_linear_1410_9810" x1="14.2455" y1="7.09966" x2="13.2504" y2="6.01199" gradientUnits="userSpaceOnUse">
<stop stop-color="#6F5219"/>
<stop offset="1" stop-color="#302200"/>
</linearGradient>
<linearGradient id="paint17_linear_1410_9810" x1="14.245" y1="6.09923" x2="13.2499" y2="5.01156" gradientUnits="userSpaceOnUse">
<stop stop-color="#6F5219"/>
<stop offset="1" stop-color="#302200"/>
</linearGradient>
<linearGradient id="paint18_linear_1410_9810" x1="14.2452" y1="5.09941" x2="13.2501" y2="4.01174" gradientUnits="userSpaceOnUse">
<stop stop-color="#6F5219"/>
<stop offset="1" stop-color="#302200"/>
</linearGradient>
<linearGradient id="paint19_linear_1410_9810" x1="10.4285" y1="38.5" x2="16.5971" y2="38.5" gradientUnits="userSpaceOnUse">
<stop stop-color="#E7E7E7"/>
<stop offset="0.234375" stop-color="#D2D2D2"/>
<stop offset="0.5625" stop-color="#A4A4A4"/>
<stop offset="0.78125" stop-color="#CDCDCD"/>
<stop offset="1" stop-color="#EAEAEA"/>
</linearGradient>
<linearGradient id="paint20_linear_1410_9810" x1="10.9502" y1="1.65929" x2="16.7659" y2="1.67757" gradientUnits="userSpaceOnUse">
<stop stop-color="#E7E7E7"/>
<stop offset="0.234375" stop-color="#D2D2D2"/>
<stop offset="0.5625" stop-color="#A4A4A4"/>
<stop offset="0.78125" stop-color="#CDCDCD"/>
<stop offset="1" stop-color="#EAEAEA"/>
</linearGradient>
<linearGradient id="paint21_linear_1410_9810" x1="0.789205" y1="22.6534" x2="20.545" y2="22.6534" gradientUnits="userSpaceOnUse">
<stop stop-color="#BF953F"/>
<stop offset="0.234375" stop-color="#FCF6BA"/>
<stop offset="0.515625" stop-color="#B38728"/>
<stop offset="0.78125" stop-color="#FBF5B7"/>
<stop offset="1" stop-color="#AA771C"/>
</linearGradient>
</defs>
</svg>
