<svg width="37" height="38" viewBox="0 0 37 38" fill="none" xmlns="http://www.w3.org/2000/svg">
<g filter="url(#filter0_d_1410_10017)">
<path fill-rule="evenodd" clip-rule="evenodd" d="M19.25 13.5H18V15.9997H15.5V17.2497H18V19.75H19.25V17.2497H21.75V15.9997H19.25V13.5Z" fill="black"/>
<path fill-rule="evenodd" clip-rule="evenodd" d="M19.25 13.5H18V15.9997H15.5V17.2497H18V19.75H19.25V17.2497H21.75V15.9997H19.25V13.5Z" fill="url(#paint0_linear_1410_10017)"/>
<path fill-rule="evenodd" clip-rule="evenodd" d="M18 1H19.25V3.51465C26.0014 3.83081 31.4189 9.24951 31.7354 16H34.25V17.25H31.7354C31.4189 24.0005 26.0014 29.4192 19.25 29.7354V32.25H18V29.7354C11.2486 29.4192 5.83112 24.0005 5.51465 17.25H3V16H5.51465C5.83112 9.24951 11.2486 3.83081 18 3.51465V1ZM6.76617 17.25H8V16H6.76617C7.08051 9.93921 11.9391 5.07959 18 4.76587V6H19.25V4.76587C25.3109 5.07959 30.1695 9.93921 30.4838 16H29.25V17.25H30.4838C30.1695 23.3108 25.3109 28.1704 19.25 28.4841V27.25H18V28.4841C11.9391 28.1704 7.08051 23.3108 6.76617 17.25Z" fill="url(#paint1_linear_1410_10017)" stroke="url(#paint2_linear_1410_10017)"/>
</g>
<defs>
<filter id="filter0_d_1410_10017" x="0.5" y="0.5" width="36.25" height="37.25" filterUnits="userSpaceOnUse" color-interpolation-filters="sRGB">
<feFlood flood-opacity="0" result="BackgroundImageFix"/>
<feColorMatrix in="SourceAlpha" type="matrix" values="0 0 0 0 0 0 0 0 0 0 0 0 0 0 0 0 0 0 127 0" result="hardAlpha"/>
<feOffset dy="3"/>
<feGaussianBlur stdDeviation="1"/>
<feComposite in2="hardAlpha" operator="out"/>
<feColorMatrix type="matrix" values="0 0 0 0 0 0 0 0 0 0 0 0 0 0 0 0 0 0 0.8 0"/>
<feBlend mode="normal" in2="BackgroundImageFix" result="effect1_dropShadow_1410_10017"/>
<feBlend mode="normal" in="SourceGraphic" in2="effect1_dropShadow_1410_10017" result="shape"/>
</filter>
<linearGradient id="paint0_linear_1410_10017" x1="18.625" y1="9.43643" x2="18.625" y2="19.7485" gradientUnits="userSpaceOnUse">
<stop stop-color="#BF953F"/>
<stop offset="0.234375" stop-color="#FCF6BA"/>
<stop offset="0.515625" stop-color="#B38728"/>
<stop offset="0.78125" stop-color="#FBF5B7"/>
<stop offset="1" stop-color="#AA771C"/>
</linearGradient>
<linearGradient id="paint1_linear_1410_10017" x1="18.6249" y1="-19.3179" x2="18.6249" y2="32.2427" gradientUnits="userSpaceOnUse">
<stop stop-color="#BF953F"/>
<stop offset="0.234375" stop-color="#FCF6BA"/>
<stop offset="0.515625" stop-color="#B38728"/>
<stop offset="0.78125" stop-color="#FBF5B7"/>
<stop offset="1" stop-color="#AA771C"/>
</linearGradient>
<linearGradient id="paint2_linear_1410_10017" x1="18.6249" y1="-19.3179" x2="18.6249" y2="32.2427" gradientUnits="userSpaceOnUse">
<stop stop-color="#BF953F"/>
<stop offset="0.234375" stop-color="#FCF6BA"/>
<stop offset="0.515625" stop-color="#B38728"/>
<stop offset="0.78125" stop-color="#FBF5B7"/>
<stop offset="1" stop-color="#AA771C"/>
</linearGradient>
</defs>
</svg>
