<svg width="42" height="39" viewBox="0 0 42 39" fill="none" xmlns="http://www.w3.org/2000/svg">
<g filter="url(#filter0_d_1418_8931)">
<path d="M21 0C20.2503 -1.10821e-08 19.508 0.146484 18.8154 0.43109C18.1228 0.715695 17.4935 1.13285 16.9634 1.65873C16.4333 2.18461 16.0129 2.80893 15.726 3.49602C15.4391 4.18312 15.2914 4.91955 15.2914 5.66326C15.2914 6.40697 15.4391 7.1434 15.726 7.8305C16.0129 8.51759 16.4333 9.14191 16.9634 9.66779C17.4935 10.1937 18.1228 10.6108 18.8154 10.8954C19.508 11.18 20.2503 11.3265 21 11.3265C22.514 11.3265 23.966 10.7299 25.0366 9.66779C26.1071 8.60572 26.7086 7.16525 26.7086 5.66326C26.7086 4.16127 26.1071 2.7208 25.0366 1.65873C23.966 0.596663 22.514 0 21 0ZM33.8571 2.82879C32.7205 2.82879 31.6304 3.27674 30.8267 4.07409C30.023 4.87144 29.5714 5.95287 29.5714 7.08049C29.5714 8.20811 30.023 9.28955 30.8267 10.0869C31.6304 10.8842 32.7205 11.3322 33.8571 11.3322C34.9938 11.3322 36.0839 10.8842 36.8876 10.0869C37.6913 9.28955 38.1429 8.20811 38.1429 7.08049C38.1429 5.95287 37.6913 4.87144 36.8876 4.07409C36.0839 3.27674 34.9938 2.82879 33.8571 2.82879ZM8.14286 2.82879C7.00622 2.82879 5.91613 3.27674 5.1124 4.07409C4.30867 4.87144 3.85714 5.95287 3.85714 7.08049C3.85714 8.20811 4.30867 9.28955 5.1124 10.0869C5.91613 10.8842 7.00622 11.3322 8.14286 11.3322C9.2795 11.3322 10.3696 10.8842 11.1733 10.0869C11.977 9.28955 12.4286 8.20811 12.4286 7.08049C12.4286 5.95287 11.977 4.87144 11.1733 4.07409C10.3696 3.27674 9.2795 2.82879 8.14286 2.82879ZM12.4286 16.9813C12.4339 16.233 12.7372 15.5171 13.2724 14.9898C13.8077 14.4625 14.5314 14.1666 15.2857 14.1667H26.7143C27.472 14.1667 28.1988 14.4653 28.7346 14.9968C29.2704 15.5284 29.5714 16.2494 29.5714 17.0011V25.5045C29.5712 26.3966 29.4305 27.2831 29.1543 28.1321C28.5216 30.0558 27.2184 31.6928 25.4786 32.7491C23.7388 33.8054 21.6764 34.2118 19.6618 33.8953C17.6472 33.5788 15.8122 32.5602 14.4865 31.0223C13.1608 29.4844 12.4312 27.5281 12.4286 25.5045V16.9813ZM9.57143 17.0011C9.57143 15.9665 9.84857 15 10.3371 14.1667H3.85714C3.09938 14.1667 2.37266 14.4653 1.83684 14.9968C1.30102 15.5284 1 16.2494 1 17.0011V24.0873C0.999611 25.2474 1.28636 26.3899 1.83507 27.4145C2.38377 28.439 3.17765 29.3142 4.14698 29.9632C5.11631 30.6122 6.23144 31.0152 7.39445 31.1368C8.55745 31.2583 9.73276 31.0948 10.8171 30.6604C9.9948 29.0634 9.56777 27.295 9.57143 25.5017V17.0011ZM32.4286 17.0011V25.5045C32.4286 27.3611 31.98 29.1128 31.1829 30.6604C32.2672 31.0948 33.4425 31.2583 34.6056 31.1368C35.7686 31.0152 36.8837 30.6122 37.853 29.9632C38.8224 29.3142 39.6162 28.439 40.1649 27.4145C40.7136 26.3899 41.0004 25.2474 41 24.0873V17.0011C41 16.2494 40.699 15.5284 40.1632 14.9968C39.6273 14.4653 38.9006 14.1667 38.1429 14.1667H31.6629C32.1486 15 32.4286 15.9665 32.4286 17.0011Z" fill="black"/>
<path d="M21 0C20.2503 -1.10821e-08 19.508 0.146484 18.8154 0.43109C18.1228 0.715695 17.4935 1.13285 16.9634 1.65873C16.4333 2.18461 16.0129 2.80893 15.726 3.49602C15.4391 4.18312 15.2914 4.91955 15.2914 5.66326C15.2914 6.40697 15.4391 7.1434 15.726 7.8305C16.0129 8.51759 16.4333 9.14191 16.9634 9.66779C17.4935 10.1937 18.1228 10.6108 18.8154 10.8954C19.508 11.18 20.2503 11.3265 21 11.3265C22.514 11.3265 23.966 10.7299 25.0366 9.66779C26.1071 8.60572 26.7086 7.16525 26.7086 5.66326C26.7086 4.16127 26.1071 2.7208 25.0366 1.65873C23.966 0.596663 22.514 0 21 0ZM33.8571 2.82879C32.7205 2.82879 31.6304 3.27674 30.8267 4.07409C30.023 4.87144 29.5714 5.95287 29.5714 7.08049C29.5714 8.20811 30.023 9.28955 30.8267 10.0869C31.6304 10.8842 32.7205 11.3322 33.8571 11.3322C34.9938 11.3322 36.0839 10.8842 36.8876 10.0869C37.6913 9.28955 38.1429 8.20811 38.1429 7.08049C38.1429 5.95287 37.6913 4.87144 36.8876 4.07409C36.0839 3.27674 34.9938 2.82879 33.8571 2.82879ZM8.14286 2.82879C7.00622 2.82879 5.91613 3.27674 5.1124 4.07409C4.30867 4.87144 3.85714 5.95287 3.85714 7.08049C3.85714 8.20811 4.30867 9.28955 5.1124 10.0869C5.91613 10.8842 7.00622 11.3322 8.14286 11.3322C9.2795 11.3322 10.3696 10.8842 11.1733 10.0869C11.977 9.28955 12.4286 8.20811 12.4286 7.08049C12.4286 5.95287 11.977 4.87144 11.1733 4.07409C10.3696 3.27674 9.2795 2.82879 8.14286 2.82879ZM12.4286 16.9813C12.4339 16.233 12.7372 15.5171 13.2724 14.9898C13.8077 14.4625 14.5314 14.1666 15.2857 14.1667H26.7143C27.472 14.1667 28.1988 14.4653 28.7346 14.9968C29.2704 15.5284 29.5714 16.2494 29.5714 17.0011V25.5045C29.5712 26.3966 29.4305 27.2831 29.1543 28.1321C28.5216 30.0558 27.2184 31.6928 25.4786 32.7491C23.7388 33.8054 21.6764 34.2118 19.6618 33.8953C17.6472 33.5788 15.8122 32.5602 14.4865 31.0223C13.1608 29.4844 12.4312 27.5281 12.4286 25.5045V16.9813ZM9.57143 17.0011C9.57143 15.9665 9.84857 15 10.3371 14.1667H3.85714C3.09938 14.1667 2.37266 14.4653 1.83684 14.9968C1.30102 15.5284 1 16.2494 1 17.0011V24.0873C0.999611 25.2474 1.28636 26.3899 1.83507 27.4145C2.38377 28.439 3.17765 29.3142 4.14698 29.9632C5.11631 30.6122 6.23144 31.0152 7.39445 31.1368C8.55745 31.2583 9.73276 31.0948 10.8171 30.6604C9.9948 29.0634 9.56777 27.295 9.57143 25.5017V17.0011ZM32.4286 17.0011V25.5045C32.4286 27.3611 31.98 29.1128 31.1829 30.6604C32.2672 31.0948 33.4425 31.2583 34.6056 31.1368C35.7686 31.0152 36.8837 30.6122 37.853 29.9632C38.8224 29.3142 39.6162 28.439 40.1649 27.4145C40.7136 26.3899 41.0004 25.2474 41 24.0873V17.0011C41 16.2494 40.699 15.5284 40.1632 14.9968C39.6273 14.4653 38.9006 14.1667 38.1429 14.1667H31.6629C32.1486 15 32.4286 15.9665 32.4286 17.0011Z" fill="url(#paint0_linear_1418_8931)"/>
</g>
<defs>
<filter id="filter0_d_1418_8931" x="0" y="0" width="42" height="39" filterUnits="userSpaceOnUse" color-interpolation-filters="sRGB">
<feFlood flood-opacity="0" result="BackgroundImageFix"/>
<feColorMatrix in="SourceAlpha" type="matrix" values="0 0 0 0 0 0 0 0 0 0 0 0 0 0 0 0 0 0 127 0" result="hardAlpha"/>
<feOffset dy="4"/>
<feGaussianBlur stdDeviation="0.5"/>
<feComposite in2="hardAlpha" operator="out"/>
<feColorMatrix type="matrix" values="0 0 0 0 0 0 0 0 0 0 0 0 0 0 0 0 0 0 1 0"/>
<feBlend mode="normal" in2="BackgroundImageFix" result="effect1_dropShadow_1418_8931"/>
<feBlend mode="normal" in="SourceGraphic" in2="effect1_dropShadow_1418_8931" result="shape"/>
</filter>
<linearGradient id="paint0_linear_1418_8931" x1="1" y1="17" x2="41" y2="17" gradientUnits="userSpaceOnUse">
<stop stop-color="#B98E37"/>
<stop offset="0.358578" stop-color="#FCF6BA"/>
<stop offset="0.601741" stop-color="#D0AA57"/>
<stop offset="0.78125" stop-color="#FBF5B7"/>
<stop offset="1" stop-color="#AA771C"/>
</linearGradient>
</defs>
</svg>
